<svg version="1.1" id="Capa_1" xmlns="http://www.w3.org/2000/svg" xmlns:xlink="http://www.w3.org/1999/xlink" x="0px" y="0px" viewBox="0 0 512.001 512.001" style="enable-background:new 0 0 512.001 512.001;" xml:space="preserve"><g><g><path d="M244.916,348.998c-0.456-3.829-1.019-7.434-4.755-9.457c-4.174-2.26-10.313-0.705-14.796-0.423 c-5.946,0.374-11.829,0.919-17.807,1.171c-2.974,0.125-5.951,0.182-8.921,0.274c-0.585,0.018-1.15,0.087-1.708,0.177 c-2.909-0.255-5.81-0.577-8.704-0.996c-1.368-0.198-2.744-0.389-4.122-0.579c1.137-2.383,2.02-4.945,3.211-7.263 c2.409-4.688,4.909-9.199,7.555-13.76c0.648-1.117,1.566-4.072,2.487-5.195c0.324,0.01,0.804,0.006,1.475-0.013 c0.918,0.134,1.838,0.24,2.762,0.319c4.715,0.514,9.54,1.235,14.14,2.386c3.248,0.813,6.596-2.178,5.563-5.563 c-0.906-2.967-2.906-5.344-4.538-7.96c-2.076-3.326-3.82-6.808-6.023-10.056c-4.438-6.543-7.779-13.735-11.588-20.645 c-2.757-5.002-5.099-12.532-10.788-15.124c-5.147-2.346-13.372-1.057-18.991-1.651c-8.132-0.859-16.083-1.638-24.261-1.493 c-3.558,0.063-7.171,0.21-10.701-0.192c-1.96-0.223-4.393-0.995-6.24,0.103c-4.242,2.524-0.9,8.89,0.916,11.917 c1.906,3.178,4.72,6.23,7.326,8.835c1.084,1.083,3.85,3.161,5.361,4.71c-3.195,4.27-7.719,7.722-10.554,12.344 c-3.325,5.422-5.715,13.035-6.278,19.324c-0.445,4.962,0.326,9.491,2.03,13.533c0.034,0.408,0.063,0.813,0.111,1.223 c0.56,4.769,2.056,9.341,3.376,13.937c2.954,10.284,6.382,20.195,10.949,29.912c8.08,17.19,23.418,31.445,42.386,35.588 c10.33,2.256,20.54,4.918,31.082,5.964c4.797,0.476,9.319-0.169,14.118-0.117c4.036,0.044,8.401,0.148,11.712-2.512 c3.308-2.656,4-7.338,4.517-11.301c0.731-5.612,0.794-11.438,0.868-17.09C246.22,369.169,246.113,359.051,244.916,348.998z M147.841,284.16c4.129-3.75,4.626-6.95,0.704-11.27c-2.574-2.836-5.776-5.103-8.596-7.694c-1.501-1.38-3.074-2.749-4.364-4.335 c-0.229-0.281-0.602-0.953-1.011-1.625c2.294,0.102,4.629,0.319,6.812,0.319c5.074,0,10.074-0.106,15.124,0.426 c5.633,0.593,11.24,1.401,16.87,2.012c3.601,0.391,8.62-0.68,11.774,1.377c3.719,2.426,4.596,7.642,6.376,11.413 c2.169,4.596,4.603,9.134,6.838,13.719c2.965,6.083,6.905,11.709,10.452,17.509c-2.409-0.224-4.819-0.446-7.225-0.64 c-3.724-0.301-7.973-1.229-10.158,2.498c-1.227,2.095-1.713,4.374-3.047,6.485c-1.54,2.438-3.221,4.8-4.673,7.292 c-1.52,2.61-2.867,5.325-4.354,7.957c-1.2,2.126-2.076,5.812-3.625,7.59c-0.205,0.235-0.37,0.478-0.514,0.724 c-4.311-0.64-8.607-1.365-12.816-2.322c-7.941-1.805-16.14-3.728-22.229-9.589C128.233,314.507,137.573,293.485,147.841,284.16z M236.215,368.936c-0.023,4.616-0.047,9.232-0.224,13.845c-0.157,4.091,0.553,11.529-1.457,15.274 c-1.772,3.301-7.511,1.594-10.912,1.914c-4.044,0.38-7.63,0.305-11.658-0.396c-9.107-1.585-18.189-2.925-27.16-5.263 c-16.142-4.207-28.64-16.464-35.879-31.021c-4.268-8.583-7.714-17.406-11.034-26.358c2.838,2.026,6.02,3.714,9.425,5.035 c13.499,5.237,30.11,5.994,44.398,6.72c4.336,0.221,8.68,0.259,13.024,0.205c2.64,0.224,5.337,0.335,8.173,0.417 c4.206,0.122,8.28-0.497,12.455-0.689c1.818-0.083,3.633-0.272,5.453-0.344c0.938-0.037,2.342,0.268,3.235,0.017 c0.358-0.009,0.716-0.017,1.073-0.026c0.762,1.896,0.695,5.526,0.815,7.392C236.226,360.049,236.238,364.522,236.215,368.936z"/></g></g><g><g><path d="M381.942,310.031c-3.286-10.051-6.161-20.202-10.598-29.821c-2.019-4.378-4.865-7.95-7.25-12.115 c-2.006-3.502-4.127-7.319-8.097-8.828c-3.964-1.506-8.352,0.268-12.03,1.829c-5.21,2.211-10.265,5.108-15.176,7.906 c-8.825,5.028-17.495,10.244-25.558,16.367c-3.071,2.332-5.894,4.643-5.746,8.889c0.165,4.743,4.615,9.25,7.128,12.972 c3.334,4.938,6.783,9.734,10.027,14.762c1.614,2.501,3.171,5.039,4.754,7.554c0.312,0.495,0.658,0.948,1.017,1.383 c1.254,2.637,2.445,5.302,3.549,8.01c0.522,1.28,1.054,2.564,1.587,3.848c-2.631,0.227-5.286,0.763-7.889,0.909 c-5.262,0.297-10.418,0.426-15.691,0.454c-1.292,0.007-4.305,0.712-5.738,0.486c-0.156-0.284-0.402-0.696-0.758-1.265 c-0.35-0.859-0.724-1.706-1.124-2.543c-1.944-4.326-3.767-8.852-5.103-13.401c-0.944-3.212-5.219-4.585-7.614-1.98 c-2.099,2.284-3.136,5.212-4.565,7.944c-1.816,3.474-3.936,6.742-5.621,10.286c-3.394,7.141-7.904,13.663-11.934,20.447 c-2.917,4.911-8.224,10.743-7.578,16.961c0.584,5.627,5.86,12.066,8.194,17.212c3.378,7.447,6.733,14.698,10.998,21.676 c1.856,3.036,3.812,6.077,5.254,9.325c0.8,1.803,1.367,4.292,3.249,5.328c4.324,2.38,8.121-3.726,9.812-6.824 c1.775-3.254,2.982-7.226,3.908-10.792c0.385-1.483,0.777-4.92,1.346-7.009c5.299,0.593,10.568,2.746,15.989,2.849 c6.36,0.122,14.134-1.673,19.842-4.372c4.504-2.129,8.019-5.088,10.641-8.604c0.334-0.234,0.668-0.464,0.998-0.713 c3.829-2.898,7.013-6.503,10.308-9.969c7.372-7.755,14.181-15.73,20.247-24.589C383.451,348.931,387.975,328.486,381.942,310.031z M336.448,387.325c-3.867,16.125-26.724,18.717-39.964,14.586c-5.324-1.662-8.335-0.469-10.075,5.1 c-1.142,3.656-1.475,7.565-2.281,11.309c-0.43,1.993-0.813,4.042-1.528,5.958c-0.126,0.339-0.517,1.002-0.889,1.695 c-1.074-2.03-2.069-4.153-3.175-6.035c-2.569-4.376-5.193-8.633-7.292-13.257c-2.341-5.158-4.484-10.402-6.808-15.566 c-1.487-3.303-4.952-7.089-4.775-10.85c0.209-4.435,4.262-7.833,6.613-11.278c2.864-4.198,5.545-8.595,8.367-12.844 c3.744-5.637,6.599-11.884,9.805-17.88c1.026,2.191,2.056,4.381,3.107,6.555c1.626,3.364,2.978,7.498,7.298,7.494 c2.427-0.002,4.639-0.738,7.135-0.657c2.882,0.094,5.77,0.347,8.654,0.336c3.02-0.011,6.044-0.225,9.066-0.275 c2.441-0.042,6.063-1.153,8.381-0.718c0.307,0.058,0.6,0.077,0.884,0.076c1.631,4.042,3.182,8.113,4.488,12.226 C335.925,371.063,338.419,379.106,336.448,387.325z M364.168,360.904c-5.239,8.027-11.103,15.466-17.141,22.863 c0.309-3.473,0.153-7.072-0.432-10.677c-2.32-14.291-10.08-28.998-16.689-41.686c-2.006-3.85-4.173-7.616-6.419-11.334 c-1.143-2.39-2.414-4.772-3.779-7.259c-2.025-3.689-4.622-6.887-6.901-10.39c-0.992-1.525-2.074-2.995-3.058-4.528 c-0.507-0.79-0.955-2.155-1.623-2.798c-0.189-0.304-0.377-0.608-0.566-0.912c1.249-1.617,4.413-3.397,5.961-4.446 c3.643-2.468,7.493-4.744,11.31-6.96c3.992-2.317,7.984-4.635,12.051-6.818c3.608-1.937,9.662-6.316,13.909-6.479 c3.746-0.147,5.18,5.667,7.178,8.438c2.376,3.295,4.126,6.424,5.562,10.253c3.245,8.655,6.689,17.165,9.216,26.085 C377.294,330.306,373.054,347.29,364.168,360.904z"/></g></g><g><g><path d="M344.703,211.717c-3.706-0.014-7.774,0.813-11.352,1.693c-1.488,0.367-4.698,1.657-6.806,2.148 c-1.998-4.944-2.61-10.602-5.096-15.42c-2.917-5.652-8.193-11.638-13.282-15.376c-4.015-2.95-8.289-4.635-12.628-5.27 c-0.365-0.182-0.726-0.367-1.102-0.538c-4.37-1.991-9.056-3.078-13.672-4.328c-10.328-2.798-20.581-4.996-31.259-6.12 c-18.89-1.988-39.027,3.754-52.392,17.837c-7.279,7.67-14.842,15.027-21.195,23.503c-2.891,3.857-4.68,8.06-7.21,12.139 c-2.127,3.43-4.476,7.111-3.915,11.321c0.562,4.207,4.209,7.223,7.332,9.717c4.423,3.532,9.374,6.601,14.171,9.591 c8.619,5.372,17.331,10.519,26.551,14.701c3.512,1.593,6.887,2.977,10.553,0.828c4.095-2.4,5.943-8.458,8.022-12.439 c2.758-5.281,5.338-10.595,8.218-15.841c1.432-2.609,2.926-5.185,4.384-7.774c0.288-0.51,0.521-1.03,0.733-1.553 c1.724-2.357,3.502-4.673,5.358-6.931c0.878-1.068,1.754-2.146,2.63-3.226c1.45,2.206,3.185,4.288,4.551,6.508 c2.763,4.488,5.329,8.963,7.86,13.587c0.62,1.133,2.674,3.448,3.156,4.817c-0.176,0.272-0.421,0.684-0.752,1.269 c-0.59,0.716-1.157,1.448-1.703,2.198c-2.881,3.767-5.996,7.522-9.363,10.861c-2.377,2.357-1.552,6.771,1.879,7.639 c3.007,0.761,6.076,0.281,9.159,0.238c3.92-0.055,7.802,0.257,11.721,0.053c7.897-0.409,15.779,0.456,23.663,0.775 c5.707,0.231,13.361,2.126,18.524-1.398c4.672-3.189,7.828-10.893,11.245-15.392c4.945-6.513,9.728-12.912,13.839-19.982 c1.789-3.077,3.534-6.243,5.705-9.056c1.205-1.561,3.126-3.244,3.142-5.392C355.409,212.168,348.233,211.731,344.703,211.717z M240.661,221.961c-2.434,3.596-4.716,7.292-6.918,11.037c-1.559,2.142-3.05,4.392-4.589,6.776 c-2.282,3.536-3.861,7.341-5.859,11.012c-0.87,1.598-1.649,3.249-2.529,4.843c-0.454,0.822-1.442,1.865-1.69,2.758 c-0.178,0.311-0.356,0.621-0.534,0.932c-2.017-0.329-5.088-2.267-6.746-3.13c-3.904-2.031-7.736-4.336-11.501-6.641 c-3.937-2.41-7.874-4.82-11.728-7.36c-3.419-2.253-10.15-5.496-12.314-9.155c-1.907-3.225,2.526-7.251,4.013-10.327 c1.769-3.657,3.689-6.685,6.375-9.768c6.07-6.97,11.92-14.047,18.564-20.511c11.957-11.632,28.914-15.978,45.116-14.634 c9.553,0.792,18.885,2.413,28.263,4.207c-3.202,1.379-6.294,3.228-9.187,5.457C257.928,196.293,248.68,210.113,240.661,221.961z M342.973,225.053c-2.628,4.341-5.125,8.673-8.195,12.719c-3.424,4.512-7.018,8.891-10.456,13.39 c-2.199,2.879-3.882,7.728-7.274,9.36c-4.001,1.925-8.917-0.025-13.065-0.455c-5.055-0.524-10.198-0.791-15.277-1.253 c-6.739-0.613-13.592-0.154-20.391-0.123c1.439-1.945,2.876-3.892,4.289-5.85c2.186-3.03,5.18-6.185,3.122-9.984 c-1.156-2.134-2.855-3.73-3.97-5.964c-1.288-2.58-2.439-5.241-3.819-7.773c-1.446-2.651-3.072-5.21-4.554-7.845 c-1.197-2.128-3.897-4.785-4.617-7.031c-0.095-0.298-0.218-0.565-0.354-0.814c2.78-3.357,5.624-6.657,8.622-9.762 c5.655-5.861,11.545-11.88,19.712-14.055c16.023-4.266,29.173,14.609,31.834,28.221c1.07,5.474,3.551,7.556,9.277,6.438 c3.76-0.734,7.356-2.3,11.033-3.37c1.958-0.569,3.943-1.206,5.969-1.489c0.358-0.05,1.127-0.021,1.914-0.023 C345.498,221.3,344.104,223.185,342.973,225.053z"/></g></g><g><g><path d="M475.913,378.86c2.217-18.609-0.173-37.903-1.451-56.507c-0.636-9.262-1.574-18.497-2.516-27.734 c-0.961-9.417-0.781-18.84-1.745-28.261c-0.956-9.338,0.572-18.912,0.313-28.293c-0.251-9.08-2.036-17.827-1.798-26.988 c0.26-9.987,0.843-19.592-0.436-29.511c-0.53-4.112-0.222-8.225-0.193-12.369c0.027-3.839-1.288-7.557-1.251-11.283 c0.018-1.842-0.485-3.347-1.315-4.528c3.525-3.058,4.632-7.622,6.445-11.893c5.086-11.985,5.02-27.023,4.074-39.834 c-0.432-5.849-2.049-11.871-3.049-17.659c-0.701-4.061-1.636-8.091-3.124-11.94c-1.699-4.39-3.957-8.637-7.836-11.474 c-4.443-3.249-10.283-3.753-15.643-4.06c-6.08-0.348-11.789,0.163-17.817-0.803c-5.408-0.867-11.179-0.53-16.777-0.341 c-0.047-6.729-0.158-13.466-0.091-20.226c0.123-12.479,0.443-25.178-13.001-30.549c-12.66-5.057-25.727-3.223-38.804-2.327 c-6.941,0.475-15.718,1.457-20.114,7.529c-3.364,4.648-3.182,10.378-3,15.865c0.273,8.24-0.709,16.258-0.865,24.481 c-0.039,2.043-0.134,4.09-0.085,6.13c-0.078,0.776-0.145,1.553-0.208,2.329c-1.61-0.378-3.228-0.714-4.813-1.005 c-3.764-0.693-6.789,0.036-10.516,0.185c-4.29,0.171-8.709-0.303-13.018-0.303c-2.708,0-5.492-0.318-8.231-0.356 c0.018-7.739-0.044-15.476-0.34-23.176c-0.409-10.68-1.311-27.005-13.615-30.741c-6.477-1.967-14.071-1.819-20.776-1.925 c-3.517-0.056-7.097,0.192-10.606-0.017c-3.533-0.211-6.969-1.04-10.523-1.191c-6.687-0.285-14.335-0.094-19.721,4.425 c-4.874,4.089-6.424,10.179-6.728,16.309c-0.368,7.412,0.543,14.865,0.21,22.282c-0.166,3.688-1.148,7.175-0.829,10.855 c0.094,1.079,0.248,2.161,0.422,3.243c-5.506-0.884-11.413-0.5-16.839-0.553c-2.875-0.028-5.747-0.167-8.615,0.089 c-2.569,0.229-5.603,1.444-8.25,1.231c0.087-2.009,0.114-4.038,0.026-6.117c-0.338-7.982,0.654-16.16-0.183-24.094 c-1.387-13.145-13.376-17.502-24.777-19.728c-7.137-1.394-14.376-0.841-21.551-1.749c-6.858-0.868-13.93-1.594-20.384,1.552 c-6.725,3.279-8.955,10.434-9.723,17.418c-0.963,8.754-0.867,17.349-1.488,26.103c-0.236,3.325-0.34,6.691-0.439,10.061 c-8.289-0.642-17.112,0.758-25.104,1.2c-9.457,0.522-19.387,1.889-22.952,11.824c-1.87,5.213-2.304,10.976-3.226,16.41 c-1.126,6.639-1.925,13.313-3.061,19.954c-0.901,5.271-0.729,10.346-1.051,15.628c-0.313,5.124-1.961,9.803-1.109,15.036 c1.343,8.253,7.982,12.632,15.365,14.774c-0.045,0.336-0.087,0.672-0.113,1.016c-0.291,3.885-0.95,7.492-1.582,11.334 c-1.516,9.21-2.906,18.576-3.832,27.866c-1.718,17.243-2.679,34.471-3.868,51.735c-2.388,34.666-4.774,69.483-8.649,104.028 c-1.867,16.637-4.735,33.163-6.996,49.745c-1.508,11.06-4.988,24.97-1.366,35.903c0.279,0.841,0.608,1.632,0.965,2.395 c0.593,8.674,3.936,17.686,6.692,25.793c2.84,8.352,6.07,17.106,10.03,24.993c3.606,7.183,8.338,9.814,15.214,13.054 c7.799,3.674,16.842,2.451,25.109,3.703c9.507,1.44,18.978,0.395,28.537,1.188c9.433,0.783,18.801,0.796,28.263,0.762 c10.073-0.036,19.996,1.202,30.092,1.039c10.032-0.162,20.067-0.378,30.101-0.202c9.64,0.169,19.2,1.416,28.839,1.4 c9.59-0.017,19.183,0.105,28.77-0.195c20.034-0.626,40.06-1.272,60.092-1.931c9.755-0.321,19.524-0.176,29.282-0.167 c10.017,0.009,20.146-0.535,30.103,0.672c9.487,1.151,19.167,0.426,28.715,0.423c7.996-0.003,16.566,0.678,24.36-1.578 c8.568-2.481,11.865-12.862,15.78-19.969c2.336-4.24,4.617-8.441,6.432-12.935c1.939-4.801,4.601-9.188,6.43-14.03 c1.725-4.563,3.627-8.735,3.97-13.647c0.374-5.348,0.626-10.731,0.822-16.09c0.343-9.394-0.273-19.619-3.297-28.604 c-0.068-0.202-0.156-0.388-0.24-0.578c0.36-3.383,1.436-6.452,2.066-9.824C474.803,388.715,475.332,383.731,475.913,378.86z M349.881,55.403c0.603-6.958,1.79-13.801,2.087-20.797c0.232-5.464-0.079-10.581-0.72-15.788 c1.621-1.731,8.264-1.526,10.815-1.624c5.995-0.23,11.561-1.342,17.589-1.091c4.479,0.186,10.042,0.474,14.101,2.644 c3.883,2.075,3.033,6.665,2.999,10.546c-0.114,12.885,0.218,25.769,0.081,38.653c-0.066,6.251-0.93,12.253-1.341,18.456 c-0.171,2.571,0.143,5.116,0.105,7.683c-0.024,1.591-0.131,2.989-0.457,4.539c-0.248,1.179-1.438,3.515-1.435,4.888 c-0.989,0.213-2.269,0.672-2.997,0.775c-2.525,0.355-5.127,0.269-7.671,0.262c-6.707-0.016-13.413-0.07-20.12-0.094 c-3.73-0.013-7.596,0.589-11.325,0.363c0.01-0.623-0.233-1.631-0.271-2.18c-0.185-2.708-0.959-5.326-1.112-7.987 c-0.371-6.43-1.432-12.787-1.426-19.278C348.787,68.837,349.317,61.914,349.881,55.403z M230.684,49.581 c-0.021-0.986-0.027-1.971-0.027-2.955c0.483-4.394,0.763-8.84,0.705-13.459c-0.051-4.084-0.362-8.269-0.093-12.347 c0.316-4.793,1.804-6.007,6.588-6.174c4.782-0.166,9.229,0.763,13.952,1.182c5.896,0.523,11.913,0.031,17.831,0.335 c2.805,0.144,5.68,0.254,8.459,0.676c0.755,0.115,2.336,0.17,3.12,0.646c2.171,3.045,2.206,9.985,2.485,13.551 c0.97,12.406,0.207,25.162,0.198,37.606c-0.004,6.276,0.341,12.74-0.284,18.992c-0.387,3.875-1.221,11.625-4.473,14.209 c-3.009,2.389-8.419,1.821-11.924,1.745c-6.074-0.131-11.721,0.822-17.715,1.082c-5.176,0.225-11.082,0.031-15.847-2.335 c-1.898-0.942-1.656-1.081-1.854-3.517c-0.237-2.914-0.267-5.794-0.682-8.701c-0.939-6.589-0.94-13.145-1.072-19.798 C229.914,63.344,230.834,56.517,230.684,49.581z M119.783,49.344c0.299-6.561,0.247-12.915,1.001-19.451 c0.296-2.572,0.303-5.204,1.267-7.652c0.209-0.531,0.354-0.855,0.444-1.056c0.694-0.252,1.764-0.439,2.307-0.537 c6.203-1.114,13.01,1.019,19.278,1.187c5.204,0.14,9.971,0.608,15.014,1.916c2.836,0.736,7.444,1.382,8.55,4.538 c0.765,2.184,0.201,5.405,0.142,7.669c-0.088,3.371-0.291,6.725-0.234,10.1c0.098,5.799,0.792,11.638,0.231,17.433 c-0.579,5.983-1.404,11.641-1.411,17.686c-0.007,5.888-0.487,11.676-1.573,17.473c-0.396,2.113-1.427,3.948-1.954,6.012 c-0.003,0.012-0.012,0.035-0.016,0.049c-5.134-1.457-11.937,0.227-17.156,0.192c-5.458-0.037-10.438-1.845-15.784-2.714 c-1.182-0.192-6.175,0.046-7.135-0.563c-1.135-0.72-1.653-3.622-1.89-4.704c-2.615-11.942-1.632-24.626-1.915-36.812 C119.213,56.528,119.618,52.963,119.783,49.344z M63.937,130.901c0.842-5.32-0.022-10.692,0.794-16.033 c0.964-6.316,1.827-12.622,2.729-18.947c0.384-2.7,0.898-5.385,1.297-8.085c0.247-1.675,2.201-7.303,1.781-8.657 c0.442-0.167,0.967-0.388,1.259-0.459c2.45-0.601,4.913-0.926,7.417-1.205c5.912-0.66,11.734-1.269,17.544-2.57 c2.277-0.51,4.521-0.516,6.816-0.882c0.043-0.007,0.082-0.019,0.124-0.026c-0.128,1.467-0.276,2.93-0.477,4.379 c-1.18,8.534,1.304,16.667,3.987,24.764c0.193,0.583,0.476,1.069,0.811,1.479c0.007,0.019,0.012,0.038,0.019,0.057 c1.936,5.314,5.749,10.03,11.465,11.437c2.58,0.635,5.277,0.346,7.891,0.867c4.452,0.887,8.639,2.586,13.175,3.075 c7.039,0.758,14.114-0.264,21.156,0.249c6.647,0.483,11.589-1.424,14.685-7.575c6.147-12.208,4.159-26.245,5.152-39.363 c0.01-0.14,0.024-0.277,0.035-0.416c5.358,0.545,10.744-0.78,16.189-0.742c5.738,0.04,12.14,0.475,18.054-0.404 c-0.039,0.974-0.079,1.948-0.098,2.933c-0.134,7.012,0.697,13.711,1.012,20.668c0.286,6.341,0.246,13.078,5.307,17.718 c4.527,4.151,14.022,6.424,19.946,6.854c7.179,0.522,14.051-1.273,21.159-1.16c6.494,0.104,13.096,0.585,19.323-1.666 c14.118-5.104,16.354-22.352,16.401-35.479c0.01-2.723,0.03-5.452,0.052-8.182c1.931,0.262,4.029,0.268,6.349,0.22 c6.186-0.13,12.784,0.527,18.813-1.094c3.227-0.868,6.969-0.996,10.343-1.83c-0.294,3.21-0.506,6.429-0.454,9.702 c0.11,6.958,0.997,13.98,1.796,20.855c0.733,6.306,0.228,11.969,6.006,16.1c4.409,3.153,9.79,3.021,14.971,2.821 c6.711-0.259,13.446-0.14,20.163-0.159c7.52-0.021,15.672,0.514,22.856-2.172c13.26-4.958,9.943-22.428,11.039-33.419 c0.445-4.466,0.692-8.926,0.832-13.385c3.628,0.014,7.256,0.023,10.884,0c4.891-0.031,9.598,1.456,14.56,1.414 c4.34-0.036,9.004-0.578,13.271,0.498c2.56,0.646,2.987,1.074,4.183,3.877c2.947,6.905,2.708,14.587,4.614,21.717 c1.24,4.637,0.8,9.494,0.76,14.26c-0.046,5.428,0.112,10.774-1.019,16.115c-0.501,2.364-1.144,4.582-2.047,6.816 c-0.612,1.515-1.996,3.569-2.288,5.269c-0.495-0.039-1.678,0.5-2.14,0.621c-2.561,0.671-5.158,1.342-7.755,1.854 c-4.926,0.969-10.12,0.673-15.125,1.337c-5.444,0.722-10.716,1.441-16.219,1.47c-22.811,0.12-45.901,0.945-68.654-0.708 c-10.99-0.798-22.091-0.387-33.105-0.393c-4.843-0.003-9.713,0.204-14.553,0.046c-5.202-0.17-10.312-1.223-15.524-1.281 c-11.212-0.126-22.271,1.574-33.512,1.016c-11.517-0.572-22.928-0.873-34.462-0.884c-21.981-0.021-43.893-2.446-65.792-0.32 c-11.12,1.08-22.565,0.338-33.724,0.321c-11.415-0.017-22.861,0.709-34.168-1.016c-4.693-0.716-12.005-0.217-15.948-3.357 C61.874,138.23,63.474,133.821,63.937,130.901z M55.735,413.211c1.117-15.366,3.489-30.841,5.548-46.114 c4.915-36.456,6.511-73.468,9.105-110.135c1.32-18.66,2.056-37.354,2.959-56.045c0.462-9.572,1.239-19.084,1.528-28.666 c0.11-3.661,0.614-7.332,0.452-10.997c-0.043-0.978-0.193-1.958-0.326-2.94c4.486,0.701,8.964,1.537,13.493,1.781 c6.619,0.356,13.329,0.036,19.958,0.051c12.998,0.029,26.327,0.909,39.281-0.287c12.27-1.134,24.366-1.261,36.702-0.467 c13.493,0.869,26.932,0.861,40.452,0.827c12.796-0.032,25.551,1.672,38.344,0.904c6.083-0.365,12.167-1.061,18.269-0.977 c6.161,0.085,12.199,1.307,18.372,1.308c11.966,0.001,23.938-0.173,35.903-0.039c13.181,0.148,26.303,1.129,39.514,1.148 c13.422,0.018,26.877,0.283,40.296,0.018c5.776-0.114,11.402-1.198,17.123-1.86c6.176-0.715,12.126-0.686,18.213-1.975 c0.125,2.96,1.036,5.742,1.233,8.68c0.214,3.201-0.171,6.529-0.182,9.742c-0.013,3.577,0.814,6.857,1.215,10.371 c0.515,4.522,0.059,9.315-0.13,13.848c-0.341,8.198-0.865,16.414,0.005,24.599c0.869,8.178,1.335,15.91,1.232,24.154 c-0.394,31.592,4.479,63.054,6.272,94.6c0.599,10.53,1.339,21.297,0.736,31.923c-6.012-0.142-12.571,1.47-17.956,1.585 c-5.752,0.123-11.515-0.219-17.266-0.05c-4.383,0.129-8.632,1.039-12.999,1.064c-4.019,0.023-7.488,1.852-9.489,5.435 c-2.81,5.031-0.491,10.257-0.294,15.534c0.204,5.468,0.167,10.936-0.083,16.401c-0.264,5.746-1.749,11.206-2.006,16.893 c-0.166,3.67,0.202,7.306,0.195,10.97c-0.003,1.505-0.252,3.09-0.22,4.6c-14.882,0.209-29.758-1.346-44.628-1.342 c-8.248,0.002-16.496,0.005-24.744,0.053c-8.395,0.049-16.658-1.202-25.046-1.218c-16.728-0.033-33.505,0.727-50.228,0.193 c-7.915-0.253-15.711-1.193-23.648-1.184c-8.187,0.009-16.183-0.222-24.339-0.909c-7.714-0.649-15.435,0.076-23.154-0.557 c-8.713-0.715-17.402-1.737-26.148-1.968c-8.037-0.213-16.074,0.229-24.112,0.114c-8.563-0.122-16.99-1.347-25.51-2.061 c-15.9-1.332-31.734-0.677-47.3-4.938c-4.635-1.269-7.286-1.71-7.682-6.335C54.201,423.761,55.36,418.366,55.735,413.211z M416.932,403.267c-0.113-2.608-0.184-5.242-0.58-7.825c0.003,0.02-0.205-1.75-0.455-2.85c5.22-0.15,10.345-1.309,15.642-1.331 c6.145-0.026,12.186-0.178,18.269-1.144c1.952-0.31,6.188-1.081,10.312-2.425c-0.311,1.887-0.677,3.765-1.118,5.632 c-0.781,3.306-1.154,6.447-1.672,9.772c-0.473,3.037-2.558,5.03-4.707,7.158c-5.152,5.104-10.783,9.695-15.95,14.801 c-4.575,4.522-8.074,9.787-13.246,13.686c-2.14,1.613-4.361,3.1-6.616,4.54c-0.17-2.558-0.536-5.117-0.631-7.673 c-0.197-5.315,1.017-10.529,1.049-15.904C417.262,414.227,417.169,408.738,416.932,403.267z M440.209,490.414 c-0.619,1.032-1.448,3.813-2.365,4.5c-0.991,0.741-5.693,0.781-7.478,0.843c-4.248,0.148-8.536-0.027-12.787-0.029 c-8.813-0.004-17.887,0.785-26.646-0.182c-17.748-1.96-36.045-1.142-53.904-0.98c-18.089,0.164-36.282,0.848-54.359,1.548 c-17.912,0.693-36.291,1.762-54.175,0.176c-18.184-1.612-36.374-0.669-54.596-0.644c-8.816,0.012-17.574-1.156-26.422-1.164 c-8.832-0.007-17.489-0.35-26.294-0.956c-5.043-0.347-10.073-0.068-15.121-0.05c-4.729,0.017-9.21-1.274-13.894-1.326 c-4.29-0.047-8.227-0.783-12.495-1.032c-2.224-0.13-3.386-0.514-5.407-1.43c-0.685-0.311-3.094-1.308-3.9-1.547 c-0.251-0.249-0.577-0.555-0.615-0.624c-0.582-1.074-1.483-2.013-2.095-3.094c-1.124-1.983-1.915-4.147-2.794-6.244 c-0.216-0.514-0.437-1.026-0.653-1.54c0.572,0.024,1.14,0.05,1.7,0.085c7.471,0.461,14.96,0.637,22.443,0.632 c6.255-0.004,12.152,0.946,18.334,1.357c6.314,0.42,12.705-0.137,19.026-0.088c6.509,0.05,13.022,1.248,19.554,1.528 c7.605,0.326,15.157,1.096,22.775,1.159c12.554,0.105,24.873,1.626,37.453,1.304c13.916-0.356,27.804,0.664,41.71,0.998 c6.358,0.153,12.819-0.348,19.155,0.22c6.925,0.62,13.639,1.065,20.608,1.113c29.193,0.201,58.386,0.365,87.58,0.494 c16.366,0.073,32.733,0.123,49.099,0.217c6.402,0.037,13.099,0.729,19.496-0.026C442.176,487.235,441.171,488.811,440.209,490.414 z M449.658,474.271c-0.93-0.044-1.786-0.09-2.322-0.024c-2.446,0.299-4.782,0.899-7.249,1.053 c-6.912,0.433-13.97-0.043-20.897-0.012c-14.134,0.063-28.269,0.125-42.403,0.188c-27.673,0.122-55.345,0.296-83.018,0.423 c-26.665,0.122-53.289-1.906-79.992-2.042c-6.209-0.031-12.41,0.378-18.618,0.341c-6.349-0.038-12.562-1.291-18.89-1.43 c-13.276-0.291-26.889,0.285-40.091-1.225c-6.762-0.773-13.19-0.847-20.001-0.727c-6.785,0.12-13.279-0.892-20.006-1.081 c-7.82-0.22-15.695,0.159-23.508,0.457c-3.247,0.124-6.577,0.147-9.797,0.562c-0.217,0.028-0.593,0.11-1.059,0.219 c-0.779-1.838-1.549-3.679-2.337-5.513c-1.748-4.07-3.549-8.207-5.301-12.372c7.853,2.492,16.835,3.11,24.132,3.878 c7.715,0.812,15.334,0.57,23.067,0.705c9.124,0.159,18.11,1.408,27.202,1.908c8.763,0.482,17.53-0.016,26.297-0.014 c8.757,0.002,17.46,0.802,26.174,1.579c8.215,0.732,16.316,0.277,24.524,0.678c8.815,0.43,17.441,1.102,26.288,1.076 c7.625-0.022,15.025,0.713,22.622,1.107c9.308,0.483,18.689,0.18,28.006,0.12c8.837-0.057,17.694-0.249,26.53-0.1 c8.388,0.142,16.634,1.277,25.05,1.256c8.997-0.022,17.996-0.03,26.993,0.022c9.405,0.054,18.735,1.16,28.147,1.16 c4.622,0,9.677,0.51,14.567,0.465c2.82,0.145,5.647,0.224,8.49,0.156c9.251-0.22,18.505-1.78,27.713-2.427 c4.362-0.306,9.584,0.766,14.247,0.451C452.752,468.203,451.238,471.268,449.658,474.271z M459.776,453.018 c-3.297-0.494-6.754-0.209-10.086-0.292c-4.41-0.109-8.841-0.444-13.226,0.199c-1.092,0.16-2.164,0.281-3.226,0.38 c5.602-4.555,9.134-10.081,13.64-15.676c1.839-2.284,3.493-4.835,5.401-7.047c2.798-3.243,6.477-5.747,9.541-8.731 c0.213-0.207,0.421-0.416,0.629-0.624c0.173,1.958,0.292,3.922,0.28,5.9C462.68,435.46,463.113,445.358,459.776,453.018z"/></g></g></svg>