<svg viewBox="-16 0 512 512.001" xmlns="http://www.w3.org/2000/svg"><path d="m143.167969 165h-105.667969c-20.675781 0-37.5 16.820312-37.5 37.5v137.011719c0 12.40625 10.09375 22.5 22.5 22.5 2.628906 0 5.152344-.457031 7.5-1.289063v124.863282c0 14.5625 11.851562 26.414062 26.417969 26.414062 14.566406 0 26.414062-11.851562 26.414062-26.417969v-138.570312h15v138.574219c0 14.5625 11.851563 26.414062 26.417969 26.414062s26.417969-11.851562 26.417969-26.417969v-124.785156c2.335937.785156 4.855469 1.214844 7.5 1.214844 12.617187 0 22.5-9.664063 22.5-22v-137.511719c0-20.679688-16.824219-37.5-37.5-37.5zm22.5 175.011719c0 3.992187-3.226563 7-7.5 7-4.277344 0-7.5-3.007813-7.5-7 0-.019531 0-137.511719 0-137.511719 0-4.140625-3.359375-7.5-7.5-7.5-4.144531 0-7.5 3.359375-7.5 7.5v283.082031c0 6.296875-5.121094 11.417969-11.417969 11.417969-6.292969 0-11.417969-5.121094-11.417969-11.417969v-146.070312c0-4.144531-3.355469-7.5-7.5-7.5h-30c-4.140625 0-7.5 3.355469-7.5 7.5v146.074219c0 6.292968-5.121093 11.414062-11.414062 11.414062-6.296875 0-11.417969-5.121094-11.417969-11.414062v-238.085938c0-4.140625-3.355469-7.5-7.5-7.5-4.140625 0-7.5 3.359375-7.5 7.5v92.011719c0 4.136719-3.363281 7.5-7.5 7.5s-7.5-3.363281-7.5-7.5v-137.011719c0-12.40625 10.09375-22.5 22.5-22.5h105.667969c12.40625 0 22.5 10.09375 22.5 22.5zm0 0"/><path d="m37.5 195c-4.140625 0-7.5 3.359375-7.5 7.5v15c0 4.140625 3.359375 7.5 7.5 7.5 4.144531 0 7.5-3.359375 7.5-7.5v-15c0-4.140625-3.355469-7.5-7.5-7.5zm0 0"/><path d="m90.664062 150c28.945313 0 52.5-23.550781 52.5-52.5s-23.554687-52.5-52.5-52.5c-28.949218 0-52.5 23.550781-52.5 52.5s23.550782 52.5 52.5 52.5zm0-90c20.675782 0 37.5 16.820312 37.5 37.5s-16.824218 37.5-37.5 37.5c-20.679687 0-37.5-16.820312-37.5-37.5s16.820313-37.5 37.5-37.5zm0 0"/><path d="m443 165h-105.667969c-20.675781 0-37.5 16.820312-37.5 37.5v137.011719c0 12.40625 10.09375 22.5 22.5 22.5 2.628907 0 5.15625-.457031 7.5-1.289063v124.863282c0 14.5625 11.851563 26.414062 26.417969 26.414062s26.417969-11.851562 26.417969-26.417969v-138.570312h15v138.574219c0 14.5625 11.847656 26.414062 26.414062 26.414062 14.566407 0 26.417969-11.851562 26.417969-26.414062v-124.789063c2.335938.785156 4.859375 1.214844 7.5 1.214844 12.617188 0 22.5-9.664063 22.5-22v-137.511719c0-20.679688-16.820312-37.5-37.5-37.5zm22.5 175.011719c0 3.992187-3.222656 7-7.5 7-4.273438 0-7.5-3.007813-7.5-7 0-.019531 0-137.511719 0-137.511719 0-4.140625-3.359375-7.5-7.5-7.5-4.144531 0-7.5 3.359375-7.5 7.5v283.082031c0 6.296875-5.121094 11.417969-11.417969 11.417969-6.292969 0-11.414062-5.121094-11.414062-11.417969v-146.070312c0-4.144531-3.359375-7.5-7.5-7.5h-30c-4.144531 0-7.5 3.355469-7.5 7.5v146.074219c0 6.292968-5.121094 11.414062-11.417969 11.414062-6.292969 0-11.417969-5.121094-11.417969-11.414062v-238.085938c0-4.140625-3.355469-7.5-7.5-7.5-4.140625 0-7.5 3.359375-7.5 7.5v92.011719c0 4.136719-3.363281 7.5-7.5 7.5-4.132812 0-7.5-3.363281-7.5-7.5v-137.011719c0-12.40625 10.09375-22.5 22.5-22.5h105.667969c12.40625 0 22.5 10.09375 22.5 22.5zm0 0"/><path d="m337.332031 195c-4.140625 0-7.5 3.359375-7.5 7.5v15c0 4.140625 3.359375 7.5 7.5 7.5 4.144531 0 7.5-3.359375 7.5-7.5v-15c0-4.140625-3.355469-7.5-7.5-7.5zm0 0"/><path d="m390.496094 150c28.949218 0 52.5-23.550781 52.5-52.5s-23.550782-52.5-52.5-52.5c-28.949219 0-52.5 23.550781-52.5 52.5s23.550781 52.5 52.5 52.5zm0-90c20.675781 0 37.5 16.820312 37.5 37.5s-16.824219 37.5-37.5 37.5c-20.679688 0-37.5-16.820312-37.5-37.5s16.820312-37.5 37.5-37.5zm0 0"/><path d="m262.332031 233.496094v-104.226563l14.210938-28.414062c.519531-1.042969.789062-2.191407.789062-3.355469v-90c0-4.140625-3.355469-7.5-7.5-7.5h-60c-4.140625 0-7.5 3.359375-7.5 7.5v90c0 1.164062.273438 2.3125.792969 3.355469l14.207031 28.414062v104.226563c-12.40625 0-22.5 10.09375-22.5 22.5 0 5.757812 2.179688 11.015625 5.75 15-3.570312 3.984375-5.75 9.242187-5.75 15v181.003906c0 24.8125 20.191407 45 45.003907 45s44.996093-20.1875 44.996093-45v-181c0-5.761719-2.175781-11.019531-5.746093-15.003906 3.570312-3.984375 5.746093-9.238282 5.746093-14.996094 0-12.410156-10.09375-22.503906-22.5-22.503906zm7.5 52.503906v158.5h-60v-158.503906c0-4.136719 3.367188-7.5 7.5-7.5.042969 0 45.015625.003906 45.023438.003906 4.140625.027344 7.476562 3.378906 7.476562 7.5zm-7.5-271v15h-45v-15zm-30.789062 109.144531-14.210938-28.414062v-50.730469h45v50.730469l-14.207031 28.414062c-.519531 1.042969-.792969 2.191407-.792969 3.355469v105.996094h-15v-105.996094c0-1.164062-.269531-2.3125-.789062-3.355469zm-14.210938 124.351563h7.414063c.03125 0 .058594.003906.085937.003906.03125 0 .058594-.003906.089844-.003906h29.824219c.03125 0 .058594.003906.085937.003906.03125 0 .058594-.003906.089844-.003906h7.410156c4.136719 0 7.5 3.367187 7.5 7.503906 0 4.117188-3.335937 7.46875-7.449219 7.496094-.015624 0-.03125 0-.050781 0-.023437 0-.042969.003906-.066406.003906l-44.933594-.003906c-4.132812 0-7.5-3.363282-7.5-7.5 0-4.136719 3.367188-7.5 7.5-7.5zm22.503907 248.503906c-16.542969 0-30.003907-13.457031-30.003907-30v-7.5h60v7.5c0 16.542969-13.457031 30-29.996093 30zm0 0"/></svg>