<?xml version="1.0" encoding="utf-8"?>
<!-- Generator: Adobe Illustrator 27.5.0, SVG Export Plug-In . SVG Version: 6.00 Build 0)  -->
<svg version="1.1" xmlns="http://www.w3.org/2000/svg" xmlns:xlink="http://www.w3.org/1999/xlink" x="0px" y="0px"
	 viewBox="0 0 500 500" style="enable-background:new 0 0 500 500;" xml:space="preserve">
<g id="BACKGROUND">
	<g>
		<g>
			<g>
				<rect style="fill:#C1C3C9;" width="500" height="500"/>
			</g>
		</g>
	</g>
</g>
<g id="OBJECTS">
	<g>
		<defs>
			<rect id="SVGID_1_" width="500" height="500"/>
		</defs>
		<clipPath id="SVGID_00000038391182870086940400000000703572328549012627_">
			<use xlink:href="#SVGID_1_"  style="overflow:visible;"/>
		</clipPath>
		<g style="clip-path:url(#SVGID_00000038391182870086940400000000703572328549012627_);">
			<g>
				<rect x="-11.02" y="123.935" style="fill:#BABBBF;" width="48.622" height="16.697"/>
				<rect x="11.119" y="144.876" style="fill:#BABBBF;" width="48.622" height="16.697"/>
				<rect x="-13.591" y="165.602" style="fill:#BABBBF;" width="48.622" height="16.697"/>
			</g>
			<g>
				
					<rect x="48.463" y="365.092" transform="matrix(-1 -1.224647e-16 1.224647e-16 -1 145.5487 746.8814)" style="fill:#BABBBF;" width="48.622" height="16.697"/>
				
					<rect x="26.325" y="344.151" transform="matrix(-1 -1.224647e-16 1.224647e-16 -1 101.2723 704.9985)" style="fill:#BABBBF;" width="48.622" height="16.697"/>
				
					<rect x="51.035" y="323.425" transform="matrix(-1 -1.224647e-16 1.224647e-16 -1 150.6911 663.5474)" style="fill:#BABBBF;" width="48.622" height="16.697"/>
			</g>
			<g>
				<rect x="400.129" y="150.322" style="fill:#BABBBF;" width="48.622" height="16.697"/>
				<rect x="422.267" y="171.263" style="fill:#BABBBF;" width="48.622" height="16.697"/>
				<rect x="397.558" y="191.989" style="fill:#BABBBF;" width="48.622" height="16.697"/>
			</g>
			<g>
				<rect x="443.427" y="18.732" style="fill:#BABBBF;" width="48.622" height="16.697"/>
				<rect x="465.565" y="39.674" style="fill:#BABBBF;" width="48.622" height="16.697"/>
				<rect x="409.913" y="39.674" style="fill:#BABBBF;" width="48.622" height="16.697"/>
				<rect x="440.855" y="60.399" style="fill:#BABBBF;" width="48.622" height="16.697"/>
			</g>
			<g>
				<rect x="73.101" y="-1.347" style="fill:#BABBBF;" width="48.622" height="16.697"/>
				<rect x="95.239" y="19.595" style="fill:#BABBBF;" width="48.622" height="16.697"/>
				<rect x="39.587" y="19.595" style="fill:#BABBBF;" width="48.622" height="16.697"/>
				<rect x="70.53" y="40.32" style="fill:#BABBBF;" width="48.622" height="16.697"/>
			</g>
			<g>
				<rect x="439.912" y="335.911" style="fill:#BABBBF;" width="48.622" height="16.697"/>
				<rect x="462.05" y="356.852" style="fill:#BABBBF;" width="48.622" height="16.697"/>
				<rect x="406.398" y="356.852" style="fill:#BABBBF;" width="48.622" height="16.697"/>
				<rect x="437.34" y="377.578" style="fill:#BABBBF;" width="48.622" height="16.697"/>
			</g>
			<g>
				<rect x="434.119" y="434.784" style="fill:#BABBBF;" width="48.622" height="16.697"/>
				<rect x="456.258" y="455.726" style="fill:#BABBBF;" width="48.622" height="16.697"/>
				<rect x="400.605" y="455.726" style="fill:#BABBBF;" width="48.622" height="16.697"/>
				<rect x="431.548" y="476.451" style="fill:#BABBBF;" width="48.622" height="16.697"/>
			</g>
			<g>
				<rect x="51.738" y="434.676" style="fill:#BABBBF;" width="48.622" height="16.697"/>
				<rect x="73.876" y="455.618" style="fill:#BABBBF;" width="48.622" height="16.697"/>
				<rect x="18.224" y="455.618" style="fill:#BABBBF;" width="48.622" height="16.697"/>
				<rect x="49.167" y="476.343" style="fill:#BABBBF;" width="48.622" height="16.697"/>
			</g>
		</g>
	</g>
	<rect x="90.087" y="44.532" style="fill:#DBDCE1;" width="319.826" height="287.826"/>
	<g>
		<rect x="90.087" y="339.924" style="fill:#97895C;" width="319.826" height="115.545"/>
		<g>
			<defs>
				
					<rect id="SVGID_00000009576532400774976030000013680073745907592085_" x="90.087" y="339.924" width="319.826" height="115.545"/>
			</defs>
			<clipPath id="SVGID_00000106144140820085970140000011189564890693562027_">
				<use xlink:href="#SVGID_00000009576532400774976030000013680073745907592085_"  style="overflow:visible;"/>
			</clipPath>
			<g style="clip-path:url(#SVGID_00000106144140820085970140000011189564890693562027_);">
				<path style="fill:#7C6F49;" d="M374.904,361.128c-22.515-0.036-45.031-0.045-67.546-0.039c0.176-5.917,0.021-11.86,0.004-17.777
					c-0.003-0.922-0.979-0.894-0.982,0.024c-0.017,5.909-0.172,11.845,0.004,17.754c-21.293,0.007-42.586,0.027-63.88,0.056
					c-0.01-6.331-0.02-12.661-0.031-18.992c-0.001-0.885-0.941-0.858-0.943,0.023c-0.01,6.323-0.02,12.647-0.03,18.97
					c-27.948,0.038-55.896,0.086-83.843,0.139c-0.021-6.184-0.049-12.368-0.078-18.552c-0.004-0.803-0.852-0.778-0.855,0.021
					c-0.029,6.178-0.057,12.355-0.078,18.533c-1.156,0.002-2.311,0.004-3.467,0.006c-20.786,0.039-41.572,0.138-62.358,0.16
					c-0.484,0-0.464,1.097,0.027,1.098c21.94,0.023,43.881,0.063,65.821,0.106c0.126,0.655,0.82,0.647,0.961,0.002
					c13.848,0.027,27.697,0.053,41.545,0.081c0.001,7.014-0.351,14.139,0.111,21.137c0.04,0.614,0.808,0.947,0.86,0.155
					c0.464-7.052,0.122-14.225,0.122-21.291c35.426,0.071,70.852,0.132,106.278,0.142c0.17,0.25,0.465,0.247,0.641,0
					c1.8,0.001,3.6,0.004,5.4,0.005c20.787,0.002,41.574,0.02,62.361-0.013C375.719,362.876,375.686,361.129,374.904,361.128z"/>
				<path style="fill:#7C6F49;" d="M124.474,419.794c22.515,0.036,45.031,0.045,67.546,0.039c-0.176,5.917-0.021,11.86-0.004,17.777
					c0.003,0.922,0.979,0.894,0.982-0.024c0.017-5.909,0.172-11.845-0.003-17.754c21.293-0.007,42.586-0.027,63.88-0.056
					c0.01,6.331,0.02,12.661,0.031,18.992c0.001,0.885,0.941,0.858,0.943-0.023c0.01-6.323,0.02-12.647,0.03-18.97
					c27.948-0.038,55.896-0.087,83.843-0.139c0.021,6.184,0.049,12.368,0.078,18.552c0.004,0.803,0.852,0.778,0.855-0.021
					c0.029-6.178,0.057-12.355,0.078-18.533c1.156-0.002,2.311-0.004,3.467-0.006c20.786-0.039,41.572-0.137,62.358-0.159
					c0.485-0.001,0.464-1.097-0.027-1.098c-21.94-0.023-43.881-0.063-65.821-0.106c-0.127-0.655-0.82-0.647-0.961-0.002
					c-13.848-0.027-27.697-0.053-41.545-0.081c-0.001-7.014,0.35-14.139-0.111-21.137c-0.04-0.614-0.808-0.947-0.86-0.155
					c-0.464,7.051-0.122,14.224-0.122,21.291c-35.426-0.071-70.852-0.132-106.278-0.142c-0.17-0.25-0.464-0.247-0.641-0.001
					c-1.8,0-3.6-0.004-5.4-0.005c-20.787-0.002-41.574-0.02-62.361,0.013C123.659,418.046,123.691,419.793,124.474,419.794z"/>
				<path style="fill:#7C6F49;" d="M282.525,389.731c-1.457-0.022-2.914-0.032-4.371-0.05c-0.022-7.444-0.043-14.889-0.065-22.333
					c-0.003-0.877-0.932-0.851-0.935,0.023c-0.022,7.433-0.043,14.865-0.065,22.298c-30.608-0.358-61.257,0.066-91.861,0.357
					c-0.443,0.004-0.423,0.997,0.025,1.001c23.162,0.22,46.351,0.517,69.528,0.496c-0.008,0.059-0.024,0.109-0.024,0.176
					c0.002,2.204,0.005,4.407,0.007,6.611c0.002,1.741-0.271,3.729,0.174,5.422c0.101,0.382,0.599,0.665,0.742,0.129
					c0.436-1.637,0.2-3.5,0.202-5.184c0.003-2.335,0.005-4.67,0.008-7.005c0-0.056-0.014-0.098-0.02-0.148
					c8.901-0.012,17.8-0.068,26.696-0.201C283.269,391.313,283.236,389.742,282.525,389.731z"/>
				<path style="fill:#7C6F49;" d="M318.629,389.317c32.414,0.482,64.881,0.013,97.296-0.296c0.443-0.004,0.423-0.997-0.025-1.001
					c-23.162-0.22-46.351-0.517-69.528-0.496c0.008-0.059,0.024-0.109,0.024-0.176c-0.002-2.203-0.005-4.407-0.007-6.611
					c-0.002-1.741,0.272-3.729-0.174-5.422c-0.1-0.382-0.599-0.665-0.742-0.129c-0.436,1.637-0.2,3.5-0.202,5.184
					c-0.003,2.335-0.005,4.67-0.008,7.005c0,0.056,0.014,0.097,0.02,0.148c-8.901,0.012-17.801,0.068-26.696,0.201
					C317.885,387.735,317.918,389.306,318.629,389.317z"/>
				<path style="fill:#7C6F49;" d="M156.556,393.381c-9.759-0.391-19.553-0.395-29.344-0.291c0.093-5.486-0.06-10.988-0.105-16.473
					c-0.006-0.685-0.723-0.663-0.729,0.018c-0.045,5.482-0.197,10.981-0.105,16.465c-7.482,0.085-14.962,0.228-22.423,0.317
					c-0.518,0.006-0.494,1.164,0.029,1.17c11.803,0.14,23.654,0.418,35.485,0.376c-0.032,4.703,0.004,9.403,0.054,14.106
					c0.007,0.67,0.706,0.648,0.713-0.018c0.05-4.699,0.085-9.394,0.054-14.093c5.474-0.027,10.943-0.117,16.402-0.336
					C157.139,394.602,157.109,393.403,156.556,393.381z"/>
				<path style="fill:#7C6F49;" d="M197.473,450.082c1.457,0.022,2.914,0.032,4.371,0.05c0.022,7.444,0.043,14.889,0.065,22.333
					c0.003,0.877,0.932,0.851,0.934-0.023c0.022-7.433,0.043-14.865,0.065-22.298c30.608,0.358,61.258-0.066,91.861-0.357
					c0.443-0.004,0.422-0.997-0.025-1.001c-23.162-0.22-46.351-0.517-69.528-0.496c0.008-0.059,0.024-0.109,0.024-0.176
					c-0.002-2.203-0.005-4.407-0.007-6.611c-0.002-1.741,0.272-3.729-0.173-5.422c-0.101-0.382-0.599-0.665-0.742-0.129
					c-0.436,1.637-0.2,3.5-0.202,5.184c-0.003,2.335-0.005,4.67-0.008,7.005c0,0.057,0.014,0.098,0.021,0.148
					c-8.901,0.012-17.801,0.068-26.696,0.201C196.729,448.5,196.763,450.071,197.473,450.082z"/>
				<path style="fill:#7C6F49;" d="M407.032,447.273c-32.414-0.482-64.881-0.013-97.296,0.296c-0.443,0.004-0.423,0.997,0.025,1.001
					c23.162,0.22,46.351,0.517,69.528,0.496c-0.008,0.059-0.024,0.109-0.024,0.176c0.002,2.203,0.005,4.407,0.007,6.611
					c0.002,1.741-0.271,3.729,0.174,5.422c0.1,0.382,0.599,0.665,0.742,0.129c0.436-1.637,0.2-3.5,0.202-5.184
					c0.003-2.335,0.005-4.67,0.008-7.005c0-0.056-0.015-0.098-0.021-0.148c8.901-0.012,17.801-0.068,26.696-0.201
					C407.776,448.855,407.742,447.284,407.032,447.273z"/>
				<path style="fill:#7C6F49;" d="M140.831,447.609c-9.759-0.391-19.553-0.395-29.344-0.291c0.093-5.486-0.06-10.988-0.105-16.473
					c-0.006-0.685-0.723-0.663-0.729,0.018c-0.045,5.482-0.197,10.982-0.105,16.465c-7.482,0.085-14.962,0.228-22.423,0.317
					c-0.518,0.006-0.494,1.164,0.029,1.17c11.804,0.14,23.654,0.418,35.485,0.376c-0.032,4.703,0.004,9.403,0.054,14.106
					c0.007,0.67,0.706,0.648,0.713-0.017c0.05-4.699,0.085-9.394,0.054-14.093c5.473-0.027,10.943-0.117,16.402-0.336
					C141.414,448.829,141.384,447.631,140.831,447.609z"/>
			</g>
		</g>
	</g>
	<g>
		<g>
			<rect x="90.087" y="332.358" style="fill:#F1DDAD;" width="319.826" height="7.566"/>
			<g>
				<rect x="132.35" y="63.951" style="fill:#F2F2F2;" width="235.3" height="275.973"/>
				
					<rect x="119.58" y="91.853" transform="matrix(-1.836970e-16 1 -1 -1.836970e-16 451.9373 -48.0626)" style="fill:#6392A8;" width="260.84" height="220.168"/>
				
					<rect x="179.584" y="151.858" transform="matrix(-1.836970e-16 1 -1 -1.836970e-16 511.9416 11.9417)" style="fill:#518396;" width="140.832" height="220.168"/>
				<rect x="139.916" y="71.517" style="fill:#FEFEFE;" width="110.084" height="260.84"/>
				
					<rect x="72.104" y="154.462" transform="matrix(-1.836970e-16 1 -1 -1.836970e-16 396.8954 6.9794)" style="fill:#C9E9FA;" width="245.708" height="94.951"/>
				<polygon style="fill:#FEFEFE;" points="360.084,332.358 271.185,321.765 271.185,82.11 360.084,71.517 				"/>
				<polygon style="fill:#C9E9FA;" points="278.752,314.198 278.752,89.676 352.518,79.084 352.518,324.791 				"/>
				<g>
					<polygon style="fill:none;" points="157.374,92.331 157.374,144.565 193.838,92.331 					"/>
					<polygon style="fill:#AFDBEF;" points="147.486,237.18 147.486,158.729 157.374,144.565 157.374,92.331 193.838,92.331 
						203.085,79.084 147.482,79.084 147.482,324.788 149.415,324.788 157.374,313.386 157.374,272.031 147.486,286.197 
						147.486,254.096 157.374,239.931 157.374,223.015 					"/>
					<polygon style="fill:#E1F6FF;" points="242.434,92.331 193.838,92.331 157.374,144.565 157.374,223.015 242.435,101.155 
						242.435,79.079 203.088,79.079 203.085,79.084 242.434,79.084 					"/>
					<polygon style="fill:#BAE5F4;" points="242.434,92.331 242.434,79.084 203.085,79.084 193.838,92.331 					"/>
					<polygon style="fill:#BAE5F4;" points="147.486,158.729 147.486,237.18 157.374,223.015 157.374,144.565 					"/>
					<polygon style="fill:#E1F6FF;" points="242.435,150.163 242.435,118.07 157.374,239.931 157.374,272.031 					"/>
					<polygon style="fill:#BAE5F4;" points="147.486,286.197 157.374,272.031 157.374,239.931 147.486,254.096 					"/>
					<polygon style="fill:#E1F6FF;" points="171.821,324.788 242.435,223.619 242.435,191.526 157.374,313.386 157.374,324.788 
											"/>
					<polygon style="fill:#BAE5F4;" points="157.374,324.788 157.374,313.386 149.415,324.788 					"/>
				</g>
				<g>
					<polygon style="fill:#AFDBEF;" points="342.531,243.9 352.518,226.687 352.518,179.504 342.531,196.718 					"/>
					<polygon style="fill:#AFDBEF;" points="342.531,323.357 352.518,323.357 352.518,263.289 342.531,280.505 					"/>
					<polygon style="fill:#AFDBEF;" points="328.297,82.562 278.752,89.676 278.752,104.494 314.067,100.392 324.058,83.171 					
						"/>
					<polygon style="fill:#AFDBEF;" points="342.531,140.812 342.531,160.115 352.518,142.902 352.518,123.598 					"/>
					<polygon style="fill:#E1F6FF;" points="352.518,123.598 352.519,123.596 352.519,79.079 328.297,82.562 352.518,79.084 					
						"/>
					<polygon style="fill:#E1F6FF;" points="314.067,100.392 278.751,161.266 278.751,250.751 342.531,140.812 342.531,97.085 					
						"/>
					<polygon style="fill:#BAE5F4;" points="352.518,79.084 328.297,82.562 324.058,83.171 314.067,100.392 342.531,97.085 
						342.531,140.812 352.518,123.598 					"/>
					<polygon style="fill:#E1F6FF;" points="278.751,270.046 278.751,306.657 342.531,196.718 342.531,160.115 					"/>
					<rect x="352.517" y="142.901" style="fill:#E1F6FF;" width="0.002" height="36.602"/>
					<polygon style="fill:#BAE5F4;" points="342.531,196.718 352.518,179.504 352.518,142.902 342.531,160.115 					"/>
					<rect x="352.517" y="226.686" style="fill:#E1F6FF;" width="0.002" height="36.602"/>
					<polygon style="fill:#E1F6FF;" points="299.975,317.247 319.583,320.062 342.531,280.505 342.531,243.9 					"/>
					<polygon style="fill:#BAE5F4;" points="342.531,280.505 352.518,263.289 352.518,226.687 342.531,243.9 					"/>
				</g>
			</g>
		</g>
		<rect x="116.131" y="51.915" style="fill:#FEFEFE;" width="267.738" height="12.036"/>
	</g>
	<g>
		<g>
			<path style="fill:#317390;" d="M398.047,403.674c0,0,5.522-44.62,2.576-48.883c0,0-12.86,41.775-8.724,47.76
				C396.035,408.536,398.047,403.674,398.047,403.674z"/>
			<g>
				<path style="fill:#235C70;" d="M398.316,362.669c1.06-0.043,2.134-0.215,3.171-0.472c0.004-0.455-0.001-0.903-0.004-1.324
					c-0.927,0.181-1.827,0.262-2.728,0.255C398.622,361.621,398.475,362.137,398.316,362.669z"/>
				<path style="fill:#235C70;" d="M396.31,370.102c1.637,0.343,3.294,0.435,4.91,0.178c0.018-0.435,0.043-0.86,0.067-1.276
					c-1.537,0.21-3.084,0.041-4.618-0.291C396.551,369.165,396.431,369.634,396.31,370.102z"/>
				<path style="fill:#235C70;" d="M394.029,379.326c2.368,0.231,4.745-0.018,6.645-1.31c0.037-0.44,0.072-0.872,0.107-1.304
					c-1.783,1.366-4.125,1.473-6.445,1.268C394.237,378.426,394.128,378.879,394.029,379.326z"/>
				<path style="fill:#235C70;" d="M392.205,388.159c2.581,0.647,5.146,0.23,7.631-0.806c0.052-0.525,0.107-1.067,0.154-1.611
					c-2.451,1.042-4.922,1.423-7.49,0.849C392.396,387.116,392.3,387.642,392.205,388.159z"/>
				<path style="fill:#235C70;" d="M391.085,398.033c-0.012,0.594,0.011,1.141,0.041,1.646c2.548,0.492,5.076-0.01,7.52-1.107
					c0.056-0.498,0.118-1.03,0.178-1.598C396.292,398.125,393.744,398.589,391.085,398.033z"/>
			</g>
		</g>
		<g>
			<path style="fill:#317390;" d="M375.449,407.61c0,0-13.639-10.01-14.947-29.155c0,0,17.937,22.707,19.805,27.565
				C382.175,410.879,375.449,407.61,375.449,407.61z"/>
			<path style="fill:#235C70;" d="M364.036,382.987c-0.845,0.553-1.764,0.972-2.72,1.3c-0.075-0.329-0.142-0.665-0.202-1.001
				c0.807-0.284,1.584-0.628,2.332-1.061C363.633,382.464,363.835,382.725,364.036,382.987z"/>
			<path style="fill:#235C70;" d="M366.443,386.118c-1.084,1.256-2.377,2.167-3.834,2.885c-0.097-0.291-0.194-0.59-0.292-0.889
				c1.36-0.673,2.571-1.517,3.61-2.676C366.092,385.662,366.271,385.887,366.443,386.118z"/>
			<path style="fill:#235C70;" d="M369.126,389.646c-1.315,1.584-2.855,3.027-4.589,4.051c-0.135-0.284-0.269-0.576-0.404-0.874
				c1.681-0.987,3.146-2.392,4.424-3.931C368.745,389.145,368.932,389.392,369.126,389.646z"/>
			<path style="fill:#235C70;" d="M372.534,394.227c-1.263,1.906-3.034,3.468-5.067,4.551c-0.172-0.254-0.351-0.523-0.516-0.792
				c2.025-1.061,3.744-2.616,5.015-4.521C372.16,393.719,372.347,393.973,372.534,394.227z"/>
			<path style="fill:#235C70;" d="M375.352,398.136c-0.964,2.063-2.287,4.088-3.916,5.71c-0.209-0.224-0.419-0.471-0.635-0.717
				c1.659-1.629,2.982-3.685,3.998-5.77C374.985,397.62,375.172,397.874,375.352,398.136z"/>
			<path style="fill:#235C70;" d="M377.601,401.387c0.194,0.299,0.381,0.59,0.568,0.867c-0.815,1.824-1.839,3.52-3.109,5.052
				c-0.179-0.142-0.418-0.336-0.703-0.59C375.688,405.109,376.742,403.315,377.601,401.387z"/>
		</g>
		<g>
			<path style="fill:#317390;" d="M381.707,404.634c0,0-1.681-40.348,0-47.821c0,0,8.221,45.181,5.792,49.309
				C385.07,410.249,381.707,404.634,381.707,404.634z"/>
			<path style="fill:#235C70;" d="M387.237,392.91c-1.779,1.016-3.782,1.562-5.882,1.831c-0.008-0.411-0.022-0.837-0.03-1.263
				c2.07-0.329,3.969-0.942,5.755-1.958C387.133,391.991,387.185,392.454,387.237,392.91z"/>
			<path style="fill:#235C70;" d="M383.127,364.936c-0.665,0.262-1.368,0.426-2.085,0.493c0.008-0.389,0.022-0.77,0.03-1.144
				c0.635-0.09,1.256-0.247,1.853-0.493C382.992,364.159,383.06,364.548,383.127,364.936z"/>
			<path style="fill:#235C70;" d="M383.919,369.72c-0.949,0.74-1.898,1.457-2.96,1.921c0-0.419,0-0.837,0.008-1.248
				c0.979-0.471,1.861-1.166,2.758-1.861C383.785,368.92,383.852,369.316,383.919,369.72z"/>
			<path style="fill:#235C70;" d="M384.794,375.228c-1.091,0.927-2.399,1.45-3.819,1.592c0-0.411,0-0.822-0.007-1.226
				c1.33-0.179,2.533-0.74,3.64-1.607C384.667,374.398,384.734,374.809,384.794,375.228z"/>
			<path style="fill:#235C70;" d="M385.444,379.435c-1.233,1.054-2.773,1.682-4.402,2.025c-0.007-0.396-0.015-0.792-0.022-1.188
				c1.562-0.389,2.997-1.061,4.23-2.145C385.309,378.561,385.376,378.994,385.444,379.435z"/>
			<path style="fill:#235C70;" d="M386.228,384.891c-1.48,1.3-3.206,2.332-5.067,2.803c-0.007-0.396-0.015-0.792-0.022-1.188v-0.008
				c1.801-0.531,3.423-1.652,4.91-2.9C386.109,384.032,386.169,384.465,386.228,384.891z"/>
			<path style="fill:#235C70;" d="M387.932,401.811c-1.951,1.263-3.991,2.287-6.241,2.504c-0.008-0.254-0.022-0.658-0.045-1.196
				c2.25-0.239,4.283-1.353,6.241-2.653C387.91,400.937,387.925,401.385,387.932,401.811z"/>
		</g>
		<g>
			<path style="fill:#317390;" d="M386.505,406.021c0,0,2.242-38.912,5.418-42.089c0,0,4.46,37.629,0,42.089
				C387.464,410.481,386.505,406.021,386.505,406.021z"/>
			<g>
				<path style="fill:#235C70;" d="M392.663,371.01c-0.897-0.202-1.786-0.516-2.631-0.897c0.067-0.389,0.142-0.77,0.209-1.129
					c0.762,0.299,1.517,0.508,2.287,0.643C392.566,370.069,392.611,370.532,392.663,371.01z"/>
				<path style="fill:#235C70;" d="M393.216,377.662c-1.45,0.037-2.877-0.142-4.215-0.613c0.052-0.374,0.097-0.74,0.142-1.099
					c1.278,0.418,2.623,0.516,3.983,0.471C393.156,376.825,393.186,377.243,393.216,377.662z"/>
				<path style="fill:#235C70;" d="M393.724,385.883c-2.055-0.172-4.043-0.755-5.463-2.152c0.037-0.381,0.075-0.755,0.112-1.129
					c1.308,1.442,3.288,1.898,5.299,2.085C393.687,385.083,393.709,385.487,393.724,385.883z"/>
				<path style="fill:#235C70;" d="M393.904,393.7c-2.302,0.15-4.424-0.605-6.383-1.876c0.037-0.456,0.075-0.927,0.12-1.398
					c1.928,1.271,3.976,1.98,6.255,1.891C393.904,392.781,393.904,393.245,393.904,393.7z"/>
				<path style="fill:#235C70;" d="M393.321,402.295c-0.082,0.508-0.187,0.972-0.292,1.398c-2.249,0.022-4.327-0.8-6.24-2.115
					c0.03-0.434,0.06-0.897,0.097-1.39C388.866,401.563,390.966,402.355,393.321,402.295z"/>
			</g>
		</g>
		<g>
			<path style="fill:#317390;" d="M374.408,365.092c0,0,6.539,34.136,10.65,42.018c0,0-2.142,5.566-6.072,1.636
				C375.055,404.816,369.183,395.374,374.408,365.092z"/>
			<g>
				<path style="fill:#235C70;" d="M375.951,372.759c-0.889,0.105-1.794,0.112-2.69,0.022c0.045-0.411,0.097-0.822,0.157-1.241
					c0.755,0.007,1.495-0.06,2.242-0.172C375.757,371.817,375.846,372.281,375.951,372.759z"/>
				<path style="fill:#235C70;" d="M377.042,377.953c-1.42,0.209-2.9,0.134-4.32-0.142c0.03-0.374,0.067-0.747,0.105-1.136
					c1.338,0.172,2.616,0.097,3.916-0.12C376.848,377.011,376.945,377.482,377.042,377.953z"/>
				<path style="fill:#235C70;" d="M378.903,386.249c-2.055,0.762-4.387,0.732-6.562,0.254c0-0.374,0-0.747,0.007-1.129
					c2.152,0.374,4.111,0.09,6.255-0.426C378.701,385.382,378.798,385.815,378.903,386.249z"/>
				<path style="fill:#235C70;" d="M380.42,392.534c-2.362,1.143-5.172,1.106-7.728,0.471c-0.045-0.366-0.082-0.747-0.112-1.136
					c2.623,0.583,4.925,0.157,7.548-0.508C380.226,391.75,380.323,392.146,380.42,392.534z"/>
				<path style="fill:#235C70;" d="M382.602,400.501c-2.145,1.592-5,2.137-7.66,2.04c-0.142-0.336-0.276-0.695-0.411-1.069
					c2.96,0.082,5.194-0.897,7.698-2.242C382.356,399.664,382.483,400.09,382.602,400.501z"/>
			</g>
		</g>
		<g>
			<path style="fill:#317390;" d="M408.223,368.148c0,0-12.213,32.54-17.596,39.615c0,0,1.171,5.848,5.709,2.638
				C400.874,407.191,408.257,398.877,408.223,368.148z"/>
			<g>
				<path style="fill:#235C70;" d="M405.407,375.444c0.859,0.253,1.749,0.414,2.648,0.477c0.025-0.413,0.043-0.827,0.055-1.249
					c-0.745-0.12-1.463-0.311-2.181-0.548C405.758,374.548,405.591,374.99,405.407,375.444z"/>
				<path style="fill:#235C70;" d="M403.454,380.379c1.364,0.446,2.835,0.622,4.282,0.59c0.034-0.373,0.06-0.748,0.089-1.137
					c-1.348-0.057-2.595-0.346-3.84-0.78C403.805,379.483,403.629,379.931,403.454,380.379z"/>
				<path style="fill:#235C70;" d="M400.218,388.241c1.897,1.099,4.2,1.463,6.425,1.359c0.063-0.368,0.126-0.737,0.183-1.114
					c-2.185,0.005-4.067-0.606-6.094-1.477C400.564,387.421,400.395,387.831,400.218,388.241z"/>
				<path style="fill:#235C70;" d="M397.661,394.18c2.134,1.526,4.91,1.964,7.537,1.77c0.106-0.353,0.207-0.723,0.302-1.101
					c-2.684,0.131-4.881-0.677-7.354-1.776C397.985,393.439,397.822,393.813,397.661,394.18z"/>
				<path style="fill:#235C70;" d="M394.164,401.663c1.845,1.931,4.567,2.951,7.206,3.305c0.197-0.307,0.39-0.638,0.586-0.984
					c-2.931-0.419-4.968-1.762-7.208-3.51C394.548,400.88,394.351,401.278,394.164,401.663z"/>
			</g>
		</g>
		<g>
			<path style="fill:#EFA700;" d="M369.159,405.537h34.67l-2.158,29.632c-0.223,3.062-2.772,5.432-5.842,5.432h-18.294
				c-3.041,0-5.577-2.328-5.836-5.358L369.159,405.537z"/>
			<path style="fill:#F9BA3A;" d="M404.098,409.723H368.89c-1.823,0-3.301-1.478-3.301-3.301l0,0c0-1.823,1.478-3.301,3.301-3.301
				h35.208c1.823,0,3.301,1.478,3.301,3.301l0,0C407.399,408.245,405.921,409.723,404.098,409.723z"/>
		</g>
	</g>
	<g>
		<g>
			<path style="fill:#7C6F49;" d="M115.934,87.049c-1.209-4.31-2.559-8.58-3.888-12.854c-1.351-4.342-4.52-16.545-4.894-16.707
				c-0.25-4.09-0.227-8.111-0.22-12.267c0.001-0.939-0.986-0.907-0.999,0.025c-0.06,4.351-0.752,9.104,0.034,13.477
				c-1.543,6.395-7.66,24.047-9.856,28.282c-6.361,12.263-3.457,28.642-3.391,32.561c0.016,0.942,0.939,0.885,0.99-0.024
				c0.276-4.958-3.793-20.855,5.211-36.758c3.068-5.419,4.642-11.893,6.468-17.985c-0.057,2.362,0.065,4.738,0.137,7.145
				c0.205,6.852-0.519,13.747-0.948,20.578c-0.326,5.198-1.045,23.758,0.033,26.249c0.463,1.07,1.258-0.17,0.974-0.911
				c-1.046-2.729-0.018-23.21,0.333-28.792c0.309-4.92,0.707-9.88,0.69-14.811c-0.015-4.367-0.548-8.715,0.031-13.028
				c0.102,0.135,0.234,0.153,0.361,0.106c0.285,1.484,0.829,2.93,1.308,4.455c1.696,5.4,3.319,10.829,4.913,16.261
				c3.102,10.565,4.55,24.44,4.78,35.504c0.021,1.016,1.027,0.963,1.071-0.026C119.481,108.338,118.398,95.829,115.934,87.049z"/>
			<polygon style="fill:#F9BA3A;" points="90.478,116.863 119.944,116.097 116.475,134.954 94.086,134.008 			"/>
			<path style="fill:#7C6F49;" d="M115.427,116.338c0.261-0.374-0.074-1.628-0.589-1.094c-2.185,2.27-7.958,14.752-9.686,17.721
				c-0.665-2.18-8.597-13.503-11.149-16.903c-0.539-0.718-1.03,0.563-0.661,1.063c2.023,2.747,10.268,16.26,10.511,16.632
				c-3.438,0.112-9.238,8.54-5.084,10.223c2.144,0.868,4.266-2.605,5.65-5.883c0.515,5.494,1.459,11.326-2.287,15.724
				c-0.357,0.419-0.045,1.814,0.512,1.242c3.858-3.968,3.413-9.641,2.865-15.027c0.803,4.647,1.912,9.652,5.399,12.215
				c0.532,0.391,0.754-0.68,0.477-1.001c-3.944-4.568-4.54-10.438-5.849-16.099c0.965,2.56,1.85,5.236,3.563,7.373
				c1.045,1.303,3.521,2.691,4.446,0.444c0.808-1.963-1.508-4.202-2.71-5.421c-1.19-1.208-2.905-3.056-4.678-4.133
				C106.079,133.222,113.559,119.015,115.427,116.338z M100.765,141.408c-0.387,0.412-0.985,1.13-1.606,0.889
				c-1.089-0.423,0.034-2.53,0.43-3.226c0.875-1.539,2.563-3.897,4.561-3.787c0.025,0.001,0.045-0.008,0.066-0.016
				c0.001,0.035,0.004,0.071,0.006,0.105C103.445,137.596,102.169,139.913,100.765,141.408z M107.966,136.778
				c1.143,0.942,4.435,3.241,4.491,4.861c0.059,1.692-1.763,0.489-2.328-0.085c-0.875-0.889-1.457-2.125-1.985-3.233
				c-0.332-0.697-0.623-1.41-0.905-2.127C107.483,136.388,107.727,136.581,107.966,136.778z"/>
			<path style="fill:#559D83;" d="M138.119,113.489c-2.286-2.432-5.573-2.989-8.762-3.38c-4.453-0.547-8.877-1.185-13.314-1.828
				c2.63-2.085,5.909-3.288,8.999-4.545c4.221-1.718,8.181-4.277,12.697-5.147c0.685-0.132,0.561-0.393,0.069-0.784
				c-3.009-2.389-7.486-1.883-10.847-1.031c-3.341,0.846-6.385,2.058-9.289,3.6c1.753-1.632,3.57-3.195,5.463-4.664
				c3.745-2.906,8.115-4.781,11.848-7.69c0.476-0.371,0.192-0.847-0.537-0.86c-4.596-0.081-8.719,1.923-12.4,4.419
				c-3.246,2.202-6.145,4.832-8.894,7.616c0.046-0.068,3.983-6.131,6.24-8.823c1.826-2.178,4.332-4.155,4.858-7.089
				c0.056-0.316,0.181-0.355-0.386-0.233c-8.308,1.798-12.405,11.398-16.737,19.067c0.341-4.999,3.073-7.177,1.899-13.972
				c-0.16-0.924-0.891-1.174-1.087-0.05c-0.852,4.883-2.626,6.284-2.947,10.601c-1.08-3.723-2.265-7.412-3.759-10.997
				c-1.775-4.259-4.169-7.084-8.339-9.381c-0.526-0.29-0.666,0.714-0.617,0.991c0.957,5.409,4.384,9.211,5.808,14.568
				c1.208,4.546,2.985,9.183,3.617,13.834c-2.426-3.04-5.631-6.407-8.608-8.929c-3.325-2.816-7.42-3.77-11.37-5.523
				c-0.687-0.305-0.746,0.33-0.493,0.649c4.462,5.622,8.476,7.642,12.752,13.451c-3.78-0.416-16.951,2.665-20.699,4.004
				c-0.674,0.241-0.695,1.13-0.025,1.231c8.094,1.224,16.144-0.927,24.245-0.407c-3.77,0.712-8.082,2.519-10.953,4.865
				c-4.205,3.435-7.013,8.199-8.846,13.243c-0.121,0.333,0.066,1.729,0.701,1.308c3.188-2.113,6.069-4.619,9.196-6.813
				c3.834-2.692,8.173-4.404,12.231-6.689c-1.527,5.517-5.936,9.809-5.747,15.906c0.015,0.498,0.644,1.387,1.054,0.629
				c3.238-5.981,6.925-11.65,10.889-17.167c0.548,5.265,1.679,10.764,4.373,15.38c0.239,0.41,0.695,0.179,0.813-0.18
				c1.787-5.43,0.65-9.701,0.416-15.225c5.091,2.139,8.935,3.178,13.376,6.516c0.783,0.589,0.854-0.168,0.541-0.758
				c-2.463-4.638-5.86-6.145-10.03-8.852c3.947,0,6.478,0.976,9.508,1.185c4.703,0.324,7.935-1.444,12.627-1.048
				C138.478,114.557,138.439,113.829,138.119,113.489z"/>
			<g>
				<path style="fill:#6DBC9E;" d="M103.677,110.776c-5.378-3.089-9.226-7.255-13.56-11.61c-0.429-0.431-0.693,0.678-0.36,1.013
					c4.226,4.256,8.009,9.106,13.83,11.174C103.875,111.454,103.875,110.889,103.677,110.776z"/>
				<path style="fill:#6DBC9E;" d="M120.7,101.642c-2.816,1.226-5.444,2.751-7.79,4.741c-1.726,1.463-5.422,5.062-5.541,5.083
					c0.288-6.414,3.27-12.092,6.722-17.378c0.236-0.362-0.144-1.244-0.5-0.722c-3.396,4.991-6.218,10.178-6.981,16.11
					c-1.675-5.961-4.494-11.908-6.819-17.556c-0.243-0.59-0.698,0.09-0.537,0.502c2.467,6.313,5.139,12.749,7.154,19.227
					c-4.171,0.87-7.875,2.587-11.484,4.921c-0.407,0.263-0.232,0.884,0.233,0.595c1.89-1.173,10.98-4.044,10.993-4.066
					c0.314-0.541-4.752,7.305-5.351,8.704c-0.265,0.618-0.133,1.196,0.243,0.467c0.81-1.57,5.624-7.676,5.726-7.701
					c0.452,1.07,2.147,6.448,2.903,7.898c0.306,0.586,0.534,0.26,0.423-0.209c-0.644-2.729-1.069-6.138-2.155-8.703
					c1.92,0.221,3.42,0.894,5.306,1.408c0.624,0.17,0.684-0.356,0.196-0.567c-1.634-0.707-3.474-1.388-5.246-1.503
					c3.41-4.271,7.806-7.862,12.731-10.147C121.361,102.542,121.209,101.42,120.7,101.642z"/>
			</g>
		</g>
		<g>
			<path style="fill:#7C6F49;" d="M409.819,87.049c-1.209-4.31-2.559-8.58-3.888-12.854c-1.351-4.342-4.52-16.545-4.894-16.707
				c-0.25-4.09-0.227-8.111-0.22-12.267c0.001-0.939-0.986-0.907-0.999,0.025c-0.06,4.351-0.752,9.104,0.034,13.477
				c-1.543,6.395-7.66,24.047-9.856,28.282c-6.361,12.263-3.457,28.642-3.391,32.561c0.016,0.942,0.939,0.885,0.99-0.024
				c0.276-4.958-3.793-20.855,5.211-36.758c3.068-5.419,4.642-11.893,6.468-17.985c-0.058,2.362,0.065,4.738,0.137,7.145
				c0.205,6.852-0.519,13.747-0.948,20.578c-0.326,5.198-1.045,23.758,0.033,26.249c0.463,1.07,1.258-0.17,0.974-0.911
				c-1.046-2.729-0.018-23.21,0.333-28.792c0.309-4.92,0.707-9.88,0.69-14.811c-0.015-4.367-0.548-8.715,0.031-13.028
				c0.102,0.135,0.234,0.153,0.361,0.106c0.285,1.484,0.829,2.93,1.308,4.455c1.696,5.4,3.319,10.829,4.913,16.261
				c3.102,10.565,4.55,24.44,4.78,35.504c0.021,1.016,1.027,0.963,1.071-0.026C413.365,108.338,412.283,95.829,409.819,87.049z"/>
			<g>
				<path style="fill:#5D9181;" d="M391.91,118.365c-0.232-0.729-0.552-1.424-0.88-2.115c-0.136-0.526-0.327-1.057-0.607-1.598
					c-0.76-1.469-1.853-2.693-2.969-3.894c-0.17-0.832-0.379-1.649-0.782-2.381c-0.666-1.211-1.789-2.1-2.814-3.015
					c-0.194-0.574-0.373-1.184-0.562-1.864c-0.238-0.857-0.175-1.461-0.641-2.243c-0.865-1.453-2.556-2.025-3.638-3.274
					c-1.561-1.801-5.568-13.802-9.355-9.757c-2.34,2.5-1.364,6.892,0.07,9.497c0.659,1.196,1.475,2.273,2.323,3.341
					c1.576,1.986,2.117,3.843,2.819,6.316c0.381,1.343,0.469,2.979,1.728,3.879c0.413,0.295,0.628,0.318,1.145,0.482
					c0.746-0.003,1.485,0.072,2.217,0.227c0.781,0.428,1.356,1.035,1.728,1.821c0.616,0.683,0.633,1.112,1.467,1.638
					c1.493,0.942,3.195,0.542,4.363,2.165c1.284,1.783,2.883,4.286,4.448,4.286C393.24,121.877,392.179,119.211,391.91,118.365z"/>
				<path style="fill:#5D9181;" d="M415.16,93.638c-0.087-0.149-0.174-0.209-0.254-0.221c-0.135-0.183-0.279-0.365-0.439-0.543
					c-0.106-0.118-0.345-0.217-0.485-0.09c-2.145,1.95-4.846,2.713-5.679,5.586c-0.464,1.601-0.462,2.875-1.375,4.405
					c-0.504,0.843-1.134,1.603-1.564,2.494c-0.372,0.77-1.099,2.773-1.229,3.001c0.085-0.419,2.171-7.695,0.677-11.4
					c-1.507-3.738-1.141-5.341,0.387-8.709c0.691-1.522,1.49-3.047,1.868-4.688c0.397-1.726,0.547-4.635-1.101-5.864
					c-2.024-1.51-4.692,0.663-6.071,2.1c-2.03,2.114-1.926,3.541-1.281,6.167c0.771,3.142-1.047,3.144-1.906,5.536
					c-0.48,1.337-0.366,2.844-0.185,4.219c0.266,2.025,1.244,4.009,1.309,6.039c0.063,1.974-1.004,3.019-1.116,4.935
					c-0.087,1.492,0.553,2.866,1.17,4.173c1.496,3.168,0.838,5.723-0.646,8.223c0.376-1.69,0.321-3.616,0.012-4.998
					c-0.143-0.641-0.41-1.211-0.707-1.773c-0.256-2.259-0.191-4.518-0.296-6.795c0.201-0.392,0.352-0.815,0.412-1.298
					c0.286-2.279-1.032-4.396-1.568-6.54c0.166-0.802,0.259-1.613,0.151-2.419c-0.165-1.231-0.787-2.251-1.547-3.184
					c0.56-1.187,0.848-2.434,0.588-3.853c-0.349-1.905-1.622-3.313-2.674-4.834c-0.173-1.419-0.409-2.811-1.319-3.98
					c-0.165-0.212-0.432-0.387-0.649-0.118c-0.451,0.56-0.752,1.069-0.942,1.59c-0.094,0.015-0.175,0.098-0.207,0.309
					c-0.461,3.072-0.377,5.811,0.778,8.717c1.05,2.643,1.482,5.322,2.719,7.858c0.607,3.206,2.276,8.589,2.118,8.77
					c-0.18-0.428-0.379-0.854-0.615-1.274c-0.627-1.12-1.183-2.274-1.704-3.444c-0.313-1.473-0.344-2.993-0.799-4.433
					c-0.46-1.455-1.319-2.676-2.28-3.843c-0.014-0.017-0.027-0.019-0.041-0.034c-0.014-0.193-0.033-0.385-0.042-0.578
					c-0.042-0.893-0.089-1.801-0.467-2.625c-0.648-1.414-2.012-2.244-3.386-2.868c-0.24-0.88-0.531-1.738-1.05-2.495
					c-0.888-1.294-3.954-2.662-4.028-2.535c-0.129-0.007-0.251,0.062-0.331,0.255c-1.096,2.622-1.888,6.257,0.737,8.205
					c1.635,1.213,2.217,0.406,1.995,2.66c-0.095,0.966-0.524,1.826-0.451,2.823c0.108,1.481,0.836,2.569,1.831,3.615
					c1.379,1.449,2.106,1.472,2.438,3.787c0.13,0.906-0.099,1.854,0.227,2.743c0.451,1.232,1.207,1.498,2.215,2.211
					c1.281,0.907,2.734,0.255,3.322,2.622c0.155,0.626-0.495,1.712-0.385,2.473c0.323,2.224,2.923,6.07,3.066,6.295
					c2.035,3.195,8.047-0.27,9.503-2.939c0.601-1.102,1.041-2.31,1.631-3.426c2.624-0.97,5.087-2.985,5.808-5.757
					c0.874-0.341,1.706-0.768,2.369-1.442c1.249-1.27,1.036-2.74,1.433-4.307c0.852-0.889,1.553-1.987,1.804-3.119
					C417.369,96.961,416.148,95.316,415.16,93.638z"/>
				<path style="fill:#559D83;" d="M397.076,119.157c-1.993-2.55-2.028-5.536-3.098-8.429c-0.979-2.646-2.771-4.817-3.693-7.511
					c-1.792-5.24-5.01-9.285-7.537-14.224c-0.158-0.308-0.422,0.066-0.306,0.297c1.25,2.494,2.547,4.961,4.082,7.293
					c1.992,3.027,2.556,6.333,4.076,9.507c1.459,3.047,2.9,5.507,3.739,8.864c0.472,1.888,1.047,3.401,2.404,4.805
					C397.085,120.112,397.27,119.404,397.076,119.157z"/>
				<path style="fill:#559D83;" d="M402.124,85.406c-1.202,1.83-2.164,3.789-2.325,6.008c-0.064,0.887,0.044,1.565,0.154,2.399
					c0.344,2.6-0.396,5.051-0.385,7.558c0.026,5.675,2.959,11.828-0.866,17.104c-0.228,0.315,0.166,1.169,0.478,0.753
					c2.48-3.303,2.504-8.448,1.927-12.358c-0.305-2.066-1.015-3.751-0.625-5.916c0.194-1.08,0.615-1.234,0.754-2.337
					c0.157-1.24-0.135-1.558-0.246-2.812c-0.344-3.892-0.53-6.306,1.574-9.706C402.747,85.801,402.385,85.009,402.124,85.406z"/>
				<path style="fill:#559D83;" d="M411.498,99.684c-1.371,4.484-4.118,7.293-7.42,10.475c-0.746,0.72-1.533,1.442-1.986,2.395
					c-0.682,1.433-0.223,3.678-1.346,4.836c-0.262,0.27,0.1,1.074,0.457,0.718c0.749-0.747,0.773-1.17,0.999-2.173
					c0.313-1.39,0.42-2.793,1.328-3.965c0.804-1.038,1.998-1.903,2.929-2.839c2.673-2.687,4.276-5.517,5.363-9.121
					C411.886,99.798,411.593,99.373,411.498,99.684z"/>
				<path style="fill:#559D83;" d="M391.205,118.328c-0.946-1.895-1.899-3.398-3.424-4.865c-1.221-1.176-2.565-2.172-3.654-3.484
					c-1.093-1.318-1.583-2.867-2.492-4.271c-1.543-2.382-3.928-3.905-5.647-6.152c-2.184-2.855-3.048-6.181-4.552-9.361
					c-0.221-0.466-0.591,0.076-0.436,0.408c1.128,2.427,1.816,4.997,3.15,7.337c1.541,2.703,3.658,4.367,5.652,6.667
					c1.775,2.048,2.507,4.633,4.402,6.629c2.423,2.552,4.858,4.444,6.59,7.6C391.014,119.234,391.34,118.598,391.205,118.328z"/>
				<path style="fill:#5D9181;" d="M404.301,118.355c0.28-0.58,0.631-1.121,0.988-1.658c0.177-0.423,0.4-0.842,0.698-1.26
					c0.81-1.133,1.868-2.023,2.943-2.891c0.242-0.674,0.514-1.329,0.938-1.892c0.701-0.93,1.744-1.537,2.709-2.176
					c0.231-0.455,0.453-0.942,0.692-1.487c0.301-0.687,0.321-1.197,0.804-1.794c0.896-1.108,2.375-1.382,3.427-2.293
					c1.518-1.315,6.3-10.841,8.973-7.013c1.651,2.366,0.31,5.911-1.199,7.912c-0.693,0.919-1.503,1.719-2.338,2.507
					c-1.553,1.466-2.227,2.951-3.109,4.929c-0.479,1.074-0.749,2.428-1.907,3.028c-0.38,0.197-0.562,0.189-1.013,0.264
					c-0.621-0.092-1.247-0.118-1.877-0.077c-0.702,0.263-1.255,0.701-1.659,1.311c-0.596,0.496-0.662,0.851-1.42,1.19
					c-1.358,0.607-2.729,0.069-3.898,1.282c-1.285,1.333-2.919,3.228-4.224,3.04C402.77,121.124,403.975,119.029,404.301,118.355z"
					/>
				<path style="fill:#559D83;" d="M404.893,118.409c1.017-1.466,1.992-2.605,3.439-3.646c1.159-0.834,2.4-1.503,3.465-2.467
					c1.07-0.967,1.664-2.201,2.591-3.262c1.573-1.802,3.745-2.785,5.448-4.452c2.164-2.119,3.284-4.789,4.92-7.26
					c0.24-0.363,0.484,0.134,0.315,0.393c-1.232,1.889-2.114,3.949-3.507,5.74c-1.61,2.069-3.575,3.203-5.514,4.881
					c-1.726,1.494-2.647,3.562-4.467,4.999c-2.327,1.837-4.585,3.123-6.409,5.547C404.944,119.188,404.748,118.618,404.893,118.409z
					"/>
			</g>
			<polygon style="fill:#E1B59D;" points="384.362,116.863 413.828,116.097 410.36,134.954 387.522,135.268 			"/>
			<path style="fill:#7C6F49;" d="M409.312,116.338c0.261-0.374-0.75-0.775-1.264-0.241c-2.185,2.271-7.283,13.899-9.011,16.868
				c-0.665-2.18-7.906-12.812-10.458-16.212c-0.539-0.718-1.721-0.128-1.352,0.372c2.023,2.747,10.268,16.26,10.511,16.632
				c-3.438,0.112-9.238,8.54-5.084,10.223c2.144,0.868,4.266-2.605,5.65-5.883c0.515,5.494,1.459,11.326-2.287,15.724
				c-0.357,0.419-0.044,1.814,0.512,1.242c3.858-3.968,3.413-9.641,2.865-15.027c0.803,4.647,1.912,9.652,5.399,12.215
				c0.532,0.391,0.754-0.68,0.477-1.001c-3.944-4.568-4.54-10.438-5.849-16.099c0.965,2.56,1.85,5.236,3.563,7.373
				c1.044,1.303,3.521,2.691,4.446,0.444c0.808-1.963-1.508-4.202-2.71-5.421c-1.19-1.208-2.905-3.056-4.678-4.133
				C399.964,133.222,407.443,119.015,409.312,116.338z M394.65,141.408c-0.387,0.412-0.985,1.13-1.606,0.889
				c-1.089-0.423,0.034-2.53,0.43-3.226c0.875-1.539,2.563-3.897,4.561-3.787c0.025,0.001,0.045-0.008,0.066-0.016
				c0.001,0.035,0.004,0.071,0.006,0.105C397.33,137.596,396.054,139.913,394.65,141.408z M401.85,136.778
				c1.143,0.942,4.435,3.241,4.491,4.861c0.059,1.692-1.763,0.489-2.328-0.085c-0.875-0.889-1.457-2.125-1.985-3.233
				c-0.332-0.697-0.623-1.41-0.905-2.127C401.368,136.388,401.612,136.581,401.85,136.778z"/>
		</g>
	</g>
	<g>
		<g>
			<g>
				<path style="fill:#317390;" d="M124.117,325.737c1.993-4.455,1.754-9.45,4.177-13.756c3.224-5.729,8.777-11.179,13.474-15.728
					c1.174-1.137,7.669-7.712,8.295-2.886c0.278,2.139-1.414,4.681-2.413,6.431c-1.779,3.119-3.867,6.042-5.821,9.05
					c-2.402,3.696-2.316,8.098-4.318,11.915c-0.911,1.736-2.18,2.968-4.162,3.335c-2.361,0.437-5.549-0.894-7.623,0.68
					c-0.034,0.026-0.064,0.032-0.096,0.044c-0.077,0.215-0.151,0.429-0.235,0.643c-1.25,3.2-2.534,6.068-3.334,9.458
					c-0.613,2.599-1.156,5.151-2.261,7.6c-0.367,0.813-1.013-0.084-0.783-0.666C121.11,336.555,121.777,330.969,124.117,325.737z"/>
				<path style="fill:#317390;" d="M121.969,301.06c-5.451-3.146-5.352-11.54-5.053-17.109c0.488-9.08,6.303-15.341,12.641-21.242
					c1.747-1.626,3.504-3.24,5.076-5.037c1.058-1.21,2.171-3.048,3.735-3.682c2.408-0.976,4.046,1.189,4.916,3.155
					c2.703,6.111,0.653,12.039-2.965,17.233c-2.823,4.053-6.376,7.662-8.667,12.07c-2.599,5-8.454,13.989-8.417,14.131
					c0.007-0.012,0.012-0.025,0.018-0.037c0.329-0.614-7.76,31.611-7.367,37.752c0.045,0.708-0.694,0.82-0.764,0.093
					C114.555,332.448,121.717,301.519,121.969,301.06z"/>
				<path style="fill:#317390;" d="M113.923,308.533c0.493-9.307,0.904-18.71,1.827-27.985c1.001-10.06,4.732-19.725,3.806-29.928
					c-0.795-8.757-1.552-17.377-0.295-26.145c1.281-8.94,4.152-17.704,7.331-26.127c1.939-5.139,3.971-13.321,10.476-14.392
					c5.29-0.87,8.178,3.81,7.631,8.443c-0.294,2.491-1.199,4.878-2.014,7.234c-1.45,4.193-2.377,8.567-3.254,12.912
					c-1.152,5.712-2.092,11.447-2.582,17.254c-0.314,3.719-0.575,7.522-1.741,11.092c-1.099,3.363-3.077,6.24-5.753,8.546
					c-1.692,1.458-3.742,2.581-5.317,4.168c-2.338,2.355-3.112,5.571-3.895,8.684c-0.036,0.143-0.096,0.228-0.165,0.268
					c-0.995,6.243-2.761,12.379-3.36,18.703c-0.88,9.29-1.367,18.713-1.808,28.034c-0.454,9.595,1.315,19.114,0.847,28.727
					c-0.04,0.814-0.913,0.802-0.875-0.021C115.24,328.137,113.401,318.384,113.923,308.533z"/>
				<path style="fill:#317390;" d="M86.164,255.958c-1.595-4.462-1.862-9.177-2.602-13.817c-0.872-5.473-2.903-10.669-5.318-15.631
					c-4.002-8.223-9.071-15.956-12.194-24.592c-2.084-5.763-5.086-15.632-1.109-21.263c4.158-5.887,13.876-0.637,18.188,2.194
					c8.431,5.536,12.721,14.872,16.408,23.918c2.419,5.934,4.757,11.87,7.395,17.713c2.619,5.801,5.262,11.646,6.827,17.837
					c1.156,4.577,1.493,8.778-0.16,13.259c-1.131,3.066-2.647,5.861-3.446,9.061c-0.631,2.526-0.912,9.232-0.973,9.813
					c-0.002,0.017,4.127,2.542,4.127,11.516c0,5.682,0.189,11.424-0.033,17.099c-0.243,6.224-1.024,12.382-1.474,18.588
					c-0.233,3.211-0.417,6.5-0.092,9.709c0.317,3.121,1.156,6.156,1.442,9.285c0.077,0.838-0.927,1.461-1.024,0.401
					c-0.492-5.389-1.76-10.41-1.571-15.872c0.215-6.194,1.135-12.342,1.498-18.527c0.338-5.757,0.388-11.527,0.312-17.293
					c-0.039-2.939-0.1-5.936-0.89-8.785c-0.539-1.942-4.967-5.339-6.203-5.791C97.204,271.826,89.066,264.075,86.164,255.958z"/>
				<path style="fill:#317390;" d="M98.311,291.661c-3.511-4.86-8.8-8.328-13.601-11.84c-6.138-4.49-12.859-8.11-19.005-12.59
					c-5.404-3.939-10.453-8.731-14.295-14.235c-1.839-2.636-5.749-8.769-3.448-12.144c1.838-2.697,6.533-0.26,8.785,0.544
					c6.339,2.265,12.112,5.572,17.299,9.868c9.981,8.267,17.704,19.473,22.342,31.545c0.962,2.504,1.789,5.058,2.551,7.634
					c0.913,1.255,11.008,37.969,12.033,47.207c0.051,0.456-1.011,0.271-1.079-0.304c-1.74-14.776-7.058-29.212-10.967-43.528
					C98.729,293.094,98.522,292.376,98.311,291.661z"/>
				<path style="fill:#317390;" d="M71.66,281.192c11.021,4.358,20.19,11.248,26.031,21.705c2.361,4.227,4.18,8.713,5.762,13.282
					c0.794,0.625,1.717,5.221,1.975,6.057c2.094,6.776,4.006,13.614,3.941,20.763c-0.005,0.569-0.608,0.553-0.607-0.015
					c0.015-8.234-2.618-16.159-5.205-23.889c-0.156-0.466-0.32-0.931-0.481-1.397c-1.56-1.216-4.131-1.388-5.903-1.862
					c-3.515-0.941-6.99-2.06-10.373-3.403c-6.139-2.437-11.963-5.706-17.505-9.287c-6.763-4.368-15.602-12.573-15.023-21.631
					C54.814,273.027,67.502,279.547,71.66,281.192z"/>
				<path style="fill:#3E859E;" d="M125.639,233.089c-0.597-2.32-0.699-4.689-1.051-7.058c-0.407-2.737-0.873-5.413-0.775-8.189
					c0.021-0.586,0.332-0.575,0.318,0.015c-0.062,2.695,0.738,5.251,1.165,7.896c0.282,1.749,0.405,3.518,0.705,5.26
					c0.54-3.049,3.365-15.556,3.911-17.859c-0.088-0.13-0.882-4.393-1.092-6.125c-0.263-2.163-0.282-4.434-1.266-6.428
					c-0.185-0.374,0.023-0.833,0.301-0.282c1.143,2.264,1.356,4.324,1.725,6.787c0.166,1.104,0.509,3.481,0.766,4.653
					c0.164-0.672,3.468-13.471,5.329-18.138c0.222-0.556,0.404-0.147,0.29,0.257c-1.483,5.232-2.918,9.3-4.047,13.673
					c0.675-0.591,1.613-1.344,2.289-1.911c1.227-1.027,2.494-1.934,3.516-3.168c0.417-0.504,0.668-0.068,0.381,0.285
					c-0.965,1.189-2.049,2.258-3.204,3.264c-0.982,0.856-2.03,1.934-3.194,2.582c-0.849,3.398-1.629,6.816-2.437,10.225
					c2.07-2.631,4.121-4.802,6.446-7.214c0.363-0.376,0.451-0.005,0.175,0.286c-2.644,2.79-7.164,9.205-7.183,9.283
					c-0.929,3.811-3.441,17.421-3.832,19.502c3.466-5.225,6.604-9.976,9.104-15.745c0.196-0.453,0.553-0.25,0.417,0.07
					c-2.561,6.012-9.682,17.297-9.76,17.248c-0.135,2.583-0.411,6.24-1.304,8.101c-0.255,0.531-0.684,0.339-0.532-0.242
					C123.623,246.974,125.481,234.022,125.639,233.089z"/>
				<path style="fill:#3E859E;" d="M70.843,195.338c3.303,1.711,6.924,2.32,9.999,4.419c-3.391-4.928-6.992-9.933-9.566-15.24
					c-0.182-0.376-0.022-1.033,0.276-0.494c3.457,6.249,13.656,20.658,14.303,21.708c-0.065-1.177-0.15-2.354-0.202-3.547
					c-0.116-2.643,0.627-5.416-0.383-8.268c-0.111-0.313-0.061-0.8,0.169-0.348c1.062,2.088,0.894,4.362,0.892,6.648
					c-0.001,2.339,0.42,4.665,0.423,6.987c2.744,4.587,5.228,9.344,7.319,14.253c1.423,3.341,3.596,10.487,4.131,12.656
					c0.651-5.965,1.452-11.883,0.63-17.878c-0.071-0.52,0.167-0.898,0.263-0.247c0.987,6.654,0.601,13.383-0.34,20.022
					c-0.012,0.084-0.033,0.146-0.057,0.202c1.487,6.514,2.498,13.144,3.793,19.727c0.732-2.226,1.466-4.411,1.885-6.771
					c0.512-2.887,1.188-5.504,1.9-8.353c0.165-0.661,0.501-0.526,0.372,0.016c-0.782,3.272-1.138,6.602-1.756,9.904
					c-0.456,2.431-1.268,4.55-2.083,6.801c0.563,2.749,1.186,5.488,1.927,8.204c0.139,0.51-0.461,1.342-0.691,0.585
					c-0.734-2.41-2.363-9.557-2.467-10.075c-1.633-2.693-5.072-6.016-6.993-8.054c-2.192-2.325-4.369-4.649-6.477-7.05
					c-0.042-0.048-0.013-0.212,0.061-0.147c3.162,2.75,6.18,5.633,9.118,8.622c1.343,1.366,2.937,2.617,3.834,4.278
					c-1.762-9.365-2.965-18.834-6.188-27.848c-1.458-1.791-4.4-3.277-5.924-4.393c-2.998-2.195-5.978-4.408-9.093-6.436
					c-0.335-0.218-0.188-0.723,0.192-0.484c4.198,2.633,13.435,8.706,13.985,9.089c-0.066-0.165-0.127-0.332-0.194-0.496
					c-2.043-4.975-7.956-16.211-10.688-20.047c-3.704-3.362-8.273-5.128-12.602-7.5C70.178,195.544,70.342,195.079,70.843,195.338z"
					/>
				<path style="fill:#3E859E;" d="M54.167,244.169c5.852,3.093,11.505,6.229,16.701,10.387c-0.363-1.798-0.671-3.72-2.008-5.058
					c-0.301-0.301-0.586-0.844-0.178-0.6c1.849,1.107,2.809,4.109,3.063,6.374c4.245,3.484,8.159,7.347,11.61,11.593
					c0.053-1.978,0.177-3.76-0.801-5.995c-0.169-0.387-0.147-0.924,0.201-0.417c1.427,2.076,1.376,4.808,1.298,7.264
					c1.224,1.554,6.91,10.067,7.647,11.504c0.197,0.383-0.801,0.728-1.129,0.148c-1.142-2.017-2.361-3.958-3.645-5.836
					c-1.072-0.368-8.313-2.806-11.004-3.329c-0.437-0.085-0.192-0.471,0.234-0.399c2.764,0.468,9.009,2.069,9.716,2.234
					c-2.283-3.183-4.774-6.159-7.441-8.954c-0.072,0.067-9.557-1.691-14.313-2.689c-0.487-0.102-0.452-0.48,0.027-0.434
					c3.28,0.314,9.968,0.81,13.526,2.104c-1.388-1.337-10.216-8.779-12.163-10.181c-4.462-1.35-7.977-0.063-11.162,1.13
					c-0.503,0.189-0.388-0.313,0.018-0.502c2.77-1.293,6.48-2.6,9.589-1.71c-3.188-2.208-6.515-4.265-9.981-6.164
					C53.609,244.441,53.752,243.949,54.167,244.169z"/>
				<path style="fill:#317390;" d="M134.268,289.67c4.035-4.434,9.681-7.286,14.846-10.236c6.604-3.772,13.69-6.613,20.3-10.373
					c5.813-3.307,11.369-7.501,15.805-12.537c2.124-2.412,6.698-8.067,4.792-11.679c-1.523-2.886-6.463-0.993-8.791-0.447
					c-6.554,1.538-12.662,4.175-18.299,7.86c-10.847,7.092-19.781,17.358-25.747,28.832c-1.237,2.38-2.346,4.824-3.393,7.299
					c-1.049,1.145-15.208,36.49-17.265,45.554c-0.102,0.448,0.974,0.384,1.106-0.181c3.391-14.487,10.299-28.234,15.793-42.019
					C133.691,291.047,133.977,290.357,134.268,289.67z"/>
				<path style="fill:#3E859E;" d="M183.472,247.443c-6.163,2.415-12.132,4.896-17.763,8.443c0.563-1.746,1.085-3.621,2.564-4.8
					c0.333-0.265,0.677-0.773,0.244-0.576c-1.961,0.892-3.254,3.767-3.76,5.989c-4.61,2.984-8.934,6.383-12.84,10.214
					c0.17-1.971,0.247-3.756,1.471-5.867c0.212-0.365,0.25-0.902-0.153-0.437c-1.652,1.902-1.908,4.623-2.106,7.072
					c-1.391,1.406-7.998,9.226-8.892,10.571c-0.238,0.358,0.715,0.813,1.105,0.275c1.361-1.876,2.792-3.668,4.278-5.389
					c1.107-0.246,8.576-1.853,11.309-2.07c0.444-0.035,0.244-0.446-0.188-0.422c-2.799,0.154-9.185,1.043-9.905,1.127
					c2.626-2.906,5.436-5.583,8.401-8.061c0.064,0.074,9.687-0.606,14.524-1.063c0.495-0.047,0.504-0.426,0.022-0.434
					c-3.294-0.056-9.995-0.316-13.677,0.57c1.529-1.172,11.139-7.575,13.23-8.749c4.586-0.84,7.934,0.834,10.964,2.378
					c0.479,0.244,0.42-0.267,0.038-0.501c-2.607-1.596-6.147-3.313-9.336-2.777c3.416-1.835,6.953-3.505,10.611-5.002
					C183.996,247.776,183.909,247.272,183.472,247.443z"/>
				<path style="fill:#3E859E;" d="M60.421,287.973c1.381-2.721,4.873-3.53,7.534-3.398c-1.801-0.576-6.482-2.598-8.441-2.879
					c-0.507-0.073-0.487-0.614,0.028-0.576c4.163,0.307,9.632,2.848,13.298,4.809c-0.078-0.853,0.07-2.079-0.097-2.918
					c-0.194-0.976,0.324-0.937,0.406-0.654c0.348,1.211,0.462,2.849,0.624,4.089c4.001,2.168,11.534,8.533,13.318,10.246
					c0.051-1.345,0.222-2.494,0.091-4.135c-0.047-0.589,0.249-1.346,0.472-0.52c0.483,1.79,0.297,3.594,0.225,5.417
					c0.562,0.552,5.178,5.569,6.267,6.976c0.086-1.575,0.123-3.168,0.293-4.728c0.076-0.695,0.505-0.702,0.434,0.019
					c-0.177,1.789,0.532,3.846-0.058,5.578c0.408,0.551,4.058,5.711,4.635,6.818c0.174,0.334-0.743,0.574-1.004,0.085
					c-0.699-1.316-1.837-2.949-2.665-4.173c-3.761-1.114-8.732-2.479-12.289-0.403c-0.453,0.265-0.363-0.336,0.062-0.582
					c3.336-1.928,7.532-1.502,11.232-0.43c-1.574-2.15-3.329-4.162-5.186-6.084c-1.967-1.43-4.709-2.198-7.04-2.367
					c-2.959-0.216-5.262,1.249-8.069,1.479c-0.443,0.036-0.428-0.969,0.025-1.021c1.818-0.207,3.352-1.216,5.144-1.534
					c1.537-0.273,3.112-0.21,4.639,0.087c0.829,0.161,1.709,0.366,2.566,0.649c-1.542-1.459-3.128-2.871-4.729-4.25
					c-1.506-1.297-3.043-2.51-4.623-3.624c-2.594-0.875-9.652,0.65-12.206,1.399c-0.562,0.165-0.664-0.19-0.182-0.339
					c2.619-0.805,7.182-2.588,10.616-2.322c-0.436-0.264-4.796-2.617-5.857-3.076c-0.045,0.249-7.398-0.637-9.132,2.646
					C60.342,289.034,60.136,288.535,60.421,287.973z"/>
				<path style="fill:#3E859E;" d="M123.291,284.343c-0.132-3.234-0.506-6.403-1.506-9.561c-0.182-0.575,0.124-0.951,0.358-0.24
					c0.829,2.516,1.748,5.076,1.979,7.79c0.061-0.137,1.771-3.541,2.234-4.337c0.773-1.328,1.388-2.2,2.419-3.551
					c-0.119-0.064,0.931-7.418,1.605-10.574c0.164-0.77,0.476-0.307,0.362,0.231c-0.634,3.002-1.116,6.237-1.193,9.322
					c0.944-1.221,8.126-10.881,8.386-14.55c0.045-0.631,0.4-0.53,0.367-0.018c-0.22,3.413-2.44,6.895-4.425,9.685
					c2.469-1.619,5.663-3.116,7.967-5.008c0.401-0.329,0.504,0.183,0.131,0.49c-2.796,2.3-9.132,6.159-9.157,6.164
					c-0.751,0.986-1.502,1.956-2.195,2.919c-1.377,1.913-2.659,3.922-3.838,5.986c2.812-1.887,5.977-2.867,8.687-4.919
					c0.399-0.302,0.6,0.238,0.241,0.516c-3.218,2.496-6.89,4.291-10.178,6.684c-0.42,0.811-3.051,8.211-3.242,9.5
					c1.75-2.271,4.282-4.304,6.783-5.592c0.517-0.266,0.689,0.145,0.239,0.379c-2.928,1.522-4.904,4.105-7.052,6.513
					c-0.171,1.709-0.197,3.475-0.066,5.523c0.032,0.502-0.814,0.57-0.94-0.303C120.562,292.586,121.747,288.414,123.291,284.343z"/>
				<path style="fill:#3E859E;" d="M127.501,320.636c1.231-4.896,4.412-10.721,6.81-14.223c3.175-4.639,8.303-7.331,10.962-12.341
					c0.26-0.49,0.434-0.116,0.261,0.219c-1.659,3.209-4.222,5.584-6.666,8.115c2.399-1.579,4.904-2.425,7.349-3.923
					c0.422-0.258,0.564,0.173,0.182,0.411c-3.462,2.158-6.381,3.946-9.758,5.726c0,0-3.823,5.455-4.979,7.472
					c2.676-1.936,6.613-3.252,9.53-4.793c0.527-0.278,0.476,0.27,0.003,0.522c-3.186,1.702-9.864,5.443-9.97,5.285
					c-0.74,1.43-1.679,3.415-2.265,4.899c2.126-0.759,4.727-1.541,6.803-2.516c0.551-0.259,0.711,0.383,0.222,0.614
					c-2.179,1.028-4.812,2.498-7.262,2.737c-0.251,0.703-0.486,1.408-0.698,2.115C127.878,321.445,127.414,320.983,127.501,320.636z
					"/>
			</g>
			<g>
				<path style="fill:#AA786F;" d="M129.32,328.26H98.337l1.928,26.48c0.199,2.736,2.477,4.854,5.221,4.854h16.348
					c2.718,0,4.984-2.08,5.215-4.788L129.32,328.26z"/>
				<path style="fill:#E1B59D;" d="M98.097,332.001h31.463c1.629,0,2.95-1.321,2.95-2.95l0,0c0-1.629-1.321-2.95-2.95-2.95H98.097
					c-1.629,0-2.95,1.321-2.95,2.95l0,0C95.147,330.68,96.468,332.001,98.097,332.001z"/>
			</g>
		</g>
		<g>
			<g>
				<path style="fill:#317390;" d="M375.883,325.737c-1.993-4.455-1.754-9.45-4.177-13.756c-3.224-5.729-8.777-11.179-13.474-15.728
					c-1.174-1.137-7.669-7.712-8.295-2.886c-0.278,2.139,1.414,4.681,2.413,6.431c1.779,3.119,3.866,6.042,5.821,9.05
					c2.402,3.696,2.316,8.098,4.318,11.915c0.911,1.736,2.18,2.968,4.162,3.335c2.361,0.437,5.549-0.894,7.623,0.68
					c0.034,0.026,0.064,0.032,0.096,0.044c0.077,0.215,0.151,0.429,0.235,0.643c1.25,3.2,2.534,6.068,3.334,9.458
					c0.613,2.599,1.156,5.151,2.261,7.6c0.367,0.813,1.013-0.084,0.783-0.666C378.89,336.555,378.223,330.969,375.883,325.737z"/>
				<path style="fill:#317390;" d="M378.031,301.06c5.451-3.146,5.352-11.54,5.053-17.109c-0.488-9.08-6.303-15.341-12.641-21.242
					c-1.747-1.626-3.504-3.24-5.076-5.037c-1.058-1.21-2.171-3.048-3.735-3.682c-2.408-0.976-4.046,1.189-4.916,3.155
					c-2.703,6.111-0.653,12.039,2.965,17.233c2.823,4.053,6.376,7.662,8.667,12.07c2.599,5,8.454,13.989,8.417,14.131
					c-0.007-0.012-0.012-0.025-0.018-0.037c-0.329-0.614,7.76,31.611,7.367,37.752c-0.045,0.708,0.694,0.82,0.764,0.093
					C385.445,332.448,378.283,301.519,378.031,301.06z"/>
				<path style="fill:#317390;" d="M386.077,308.533c-0.493-9.307-0.904-18.71-1.827-27.985c-1.001-10.06-4.732-19.725-3.806-29.928
					c0.795-8.757,1.552-17.377,0.295-26.145c-1.281-8.94-4.152-17.704-7.331-26.127c-1.939-5.139-3.971-13.321-10.476-14.392
					c-5.289-0.87-8.178,3.81-7.631,8.443c0.294,2.491,1.199,4.878,2.014,7.234c1.45,4.193,2.377,8.567,3.254,12.912
					c1.152,5.712,2.092,11.447,2.582,17.254c0.314,3.719,0.575,7.522,1.741,11.092c1.099,3.363,3.077,6.24,5.753,8.546
					c1.692,1.458,3.741,2.581,5.317,4.168c2.338,2.355,3.112,5.571,3.895,8.684c0.036,0.143,0.096,0.228,0.165,0.268
					c0.995,6.243,2.761,12.379,3.361,18.703c0.88,9.29,1.367,18.713,1.808,28.034c0.454,9.595-1.315,19.114-0.847,28.727
					c0.04,0.814,0.913,0.802,0.875-0.021C384.76,328.137,386.599,318.384,386.077,308.533z"/>
				<path style="fill:#317390;" d="M413.836,255.958c1.596-4.462,1.862-9.177,2.602-13.817c0.872-5.473,2.903-10.669,5.318-15.631
					c4.003-8.223,9.071-15.956,12.194-24.592c2.084-5.763,5.086-15.632,1.109-21.263c-4.158-5.887-13.876-0.637-18.188,2.194
					c-8.431,5.536-12.721,14.872-16.408,23.918c-2.419,5.934-4.757,11.87-7.395,17.713c-2.619,5.801-5.262,11.646-6.827,17.837
					c-1.156,4.577-1.493,8.778,0.16,13.259c1.131,3.066,2.647,5.861,3.446,9.061c0.631,2.526,0.912,9.232,0.973,9.813
					c0.002,0.017-4.127,2.542-4.127,11.516c0,5.682-0.188,11.424,0.033,17.099c0.243,6.224,1.024,12.382,1.474,18.588
					c0.233,3.211,0.417,6.5,0.092,9.709c-0.316,3.121-1.156,6.156-1.442,9.285c-0.077,0.838,0.927,1.461,1.024,0.401
					c0.492-5.389,1.76-10.41,1.571-15.872c-0.215-6.194-1.135-12.342-1.498-18.527c-0.338-5.757-0.388-11.527-0.312-17.293
					c0.039-2.939,0.1-5.936,0.89-8.785c0.539-1.942,4.967-5.339,6.203-5.791C402.796,271.826,410.934,264.075,413.836,255.958z"/>
				<path style="fill:#317390;" d="M401.689,291.661c3.511-4.86,8.8-8.328,13.601-11.84c6.138-4.49,12.859-8.11,19.005-12.59
					c5.404-3.939,10.453-8.731,14.294-14.235c1.839-2.636,5.749-8.769,3.448-12.144c-1.838-2.697-6.533-0.26-8.785,0.544
					c-6.339,2.265-12.112,5.572-17.299,9.868c-9.981,8.267-17.704,19.473-22.342,31.545c-0.962,2.504-1.789,5.058-2.551,7.634
					c-0.913,1.255-11.008,37.969-12.033,47.207c-0.051,0.456,1.011,0.271,1.079-0.304c1.74-14.776,7.058-29.212,10.967-43.528
					C401.271,293.094,401.478,292.376,401.689,291.661z"/>
				<path style="fill:#317390;" d="M428.34,281.192c-11.021,4.358-20.19,11.248-26.031,21.705c-2.361,4.227-4.18,8.713-5.762,13.282
					c-0.794,0.625-1.717,5.221-1.975,6.057c-2.094,6.776-4.006,13.614-3.941,20.763c0.005,0.569,0.608,0.553,0.607-0.015
					c-0.015-8.234,2.618-16.159,5.205-23.889c0.156-0.466,0.32-0.931,0.481-1.397c1.56-1.216,4.131-1.388,5.903-1.862
					c3.516-0.941,6.99-2.06,10.373-3.403c6.139-2.437,11.963-5.706,17.505-9.287c6.763-4.368,15.602-12.573,15.023-21.631
					C445.186,273.027,432.498,279.547,428.34,281.192z"/>
				<path style="fill:#3E859E;" d="M374.361,233.089c0.597-2.32,0.699-4.689,1.051-7.058c0.407-2.737,0.873-5.413,0.775-8.189
					c-0.021-0.586-0.332-0.575-0.318,0.015c0.062,2.695-0.738,5.251-1.165,7.896c-0.282,1.749-0.405,3.518-0.705,5.26
					c-0.54-3.049-3.365-15.556-3.911-17.859c0.088-0.13,0.882-4.393,1.092-6.125c0.263-2.163,0.282-4.434,1.266-6.428
					c0.185-0.374-0.023-0.833-0.301-0.282c-1.143,2.264-1.356,4.324-1.725,6.787c-0.166,1.104-0.509,3.481-0.766,4.653
					c-0.164-0.672-3.468-13.471-5.329-18.138c-0.222-0.556-0.405-0.147-0.29,0.257c1.483,5.232,2.918,9.3,4.047,13.673
					c-0.675-0.591-1.613-1.344-2.289-1.911c-1.227-1.027-2.494-1.934-3.516-3.168c-0.417-0.504-0.668-0.068-0.381,0.285
					c0.965,1.189,2.05,2.258,3.204,3.264c0.982,0.856,2.03,1.934,3.194,2.582c0.849,3.398,1.629,6.816,2.437,10.225
					c-2.07-2.631-4.121-4.802-6.446-7.214c-0.363-0.376-0.451-0.005-0.175,0.286c2.644,2.79,7.164,9.205,7.183,9.283
					c0.929,3.811,3.44,17.421,3.832,19.502c-3.466-5.225-6.604-9.976-9.104-15.745c-0.196-0.453-0.553-0.25-0.417,0.07
					c2.561,6.012,9.682,17.297,9.76,17.248c0.135,2.583,0.411,6.24,1.304,8.101c0.255,0.531,0.684,0.339,0.532-0.242
					C376.376,246.974,374.519,234.022,374.361,233.089z"/>
				<path style="fill:#3E859E;" d="M429.157,195.338c-3.303,1.711-6.924,2.32-9.999,4.419c3.391-4.928,6.992-9.933,9.566-15.24
					c0.182-0.376,0.022-1.033-0.276-0.494c-3.457,6.249-13.656,20.658-14.303,21.708c0.065-1.177,0.15-2.354,0.202-3.547
					c0.115-2.643-0.627-5.416,0.383-8.268c0.111-0.313,0.061-0.8-0.169-0.348c-1.062,2.088-0.893,4.362-0.892,6.648
					c0.001,2.339-0.42,4.665-0.423,6.987c-2.744,4.587-5.228,9.344-7.319,14.253c-1.423,3.341-3.596,10.487-4.13,12.656
					c-0.651-5.965-1.452-11.883-0.63-17.878c0.071-0.52-0.167-0.898-0.263-0.247c-0.987,6.654-0.601,13.383,0.339,20.022
					c0.012,0.084,0.033,0.146,0.057,0.202c-1.487,6.514-2.498,13.144-3.793,19.727c-0.732-2.226-1.466-4.411-1.885-6.771
					c-0.512-2.887-1.188-5.504-1.9-8.353c-0.165-0.661-0.501-0.526-0.372,0.016c0.782,3.272,1.138,6.602,1.756,9.904
					c0.456,2.431,1.268,4.55,2.083,6.801c-0.563,2.749-1.186,5.488-1.927,8.204c-0.139,0.51,0.461,1.342,0.691,0.585
					c0.734-2.41,2.363-9.557,2.467-10.075c1.633-2.693,5.072-6.016,6.993-8.054c2.192-2.325,4.369-4.649,6.477-7.05
					c0.042-0.048,0.013-0.212-0.061-0.147c-3.161,2.75-6.18,5.633-9.118,8.622c-1.343,1.366-2.937,2.617-3.834,4.278
					c1.762-9.365,2.965-18.834,6.188-27.848c1.458-1.791,4.4-3.277,5.923-4.393c2.998-2.195,5.978-4.408,9.093-6.436
					c0.335-0.218,0.188-0.723-0.192-0.484c-4.198,2.633-13.435,8.706-13.985,9.089c0.066-0.165,0.127-0.332,0.194-0.496
					c2.043-4.975,7.956-16.211,10.688-20.047c3.704-3.362,8.273-5.128,12.602-7.5C429.822,195.544,429.658,195.079,429.157,195.338z
					"/>
				<path style="fill:#3E859E;" d="M445.833,244.169c-5.852,3.093-11.505,6.229-16.701,10.387c0.363-1.798,0.671-3.72,2.008-5.058
					c0.301-0.301,0.586-0.844,0.178-0.6c-1.849,1.107-2.809,4.109-3.063,6.374c-4.245,3.484-8.159,7.347-11.61,11.593
					c-0.053-1.978-0.177-3.76,0.801-5.995c0.169-0.387,0.147-0.924-0.201-0.417c-1.427,2.076-1.376,4.808-1.297,7.264
					c-1.224,1.554-6.91,10.067-7.647,11.504c-0.197,0.383,0.801,0.728,1.129,0.148c1.142-2.017,2.361-3.958,3.645-5.836
					c1.072-0.368,8.313-2.806,11.004-3.329c0.437-0.085,0.192-0.471-0.234-0.399c-2.764,0.468-9.009,2.069-9.716,2.234
					c2.283-3.183,4.774-6.159,7.441-8.954c0.072,0.067,9.557-1.691,14.313-2.689c0.487-0.102,0.452-0.48-0.027-0.434
					c-3.28,0.314-9.968,0.81-13.526,2.104c1.388-1.337,10.216-8.779,12.163-10.181c4.462-1.35,7.977-0.063,11.162,1.13
					c0.503,0.189,0.387-0.313-0.018-0.502c-2.77-1.293-6.48-2.6-9.589-1.71c3.188-2.208,6.515-4.265,9.981-6.164
					C446.391,244.441,446.248,243.949,445.833,244.169z"/>
				<path style="fill:#317390;" d="M365.732,289.67c-4.035-4.434-9.681-7.286-14.846-10.236c-6.604-3.772-13.69-6.613-20.3-10.373
					c-5.813-3.307-11.369-7.501-15.805-12.537c-2.124-2.412-6.698-8.067-4.792-11.679c1.523-2.886,6.463-0.993,8.791-0.447
					c6.554,1.538,12.662,4.175,18.299,7.86c10.847,7.092,19.781,17.358,25.747,28.832c1.237,2.38,2.346,4.824,3.394,7.299
					c1.049,1.145,15.208,36.49,17.265,45.554c0.102,0.448-0.974,0.384-1.106-0.181c-3.391-14.487-10.299-28.234-15.793-42.019
					C366.309,291.047,366.023,290.357,365.732,289.67z"/>
				<path style="fill:#3E859E;" d="M316.528,247.443c6.163,2.415,12.132,4.896,17.763,8.443c-0.563-1.746-1.085-3.621-2.564-4.8
					c-0.333-0.265-0.677-0.773-0.244-0.576c1.961,0.892,3.253,3.767,3.76,5.989c4.61,2.984,8.934,6.383,12.84,10.214
					c-0.17-1.971-0.247-3.756-1.471-5.867c-0.212-0.365-0.25-0.902,0.153-0.437c1.651,1.902,1.908,4.623,2.106,7.072
					c1.391,1.406,7.998,9.226,8.892,10.571c0.238,0.358-0.715,0.813-1.105,0.275c-1.361-1.876-2.792-3.668-4.278-5.389
					c-1.107-0.246-8.576-1.853-11.309-2.07c-0.444-0.035-0.244-0.446,0.188-0.422c2.799,0.154,9.185,1.043,9.905,1.127
					c-2.626-2.906-5.436-5.583-8.401-8.061c-0.064,0.074-9.687-0.606-14.524-1.063c-0.495-0.047-0.504-0.426-0.022-0.434
					c3.294-0.056,9.995-0.316,13.677,0.57c-1.529-1.172-11.139-7.575-13.23-8.749c-4.586-0.84-7.934,0.834-10.965,2.378
					c-0.479,0.244-0.42-0.267-0.038-0.501c2.607-1.596,6.147-3.313,9.336-2.777c-3.416-1.835-6.953-3.505-10.611-5.002
					C316.004,247.776,316.091,247.272,316.528,247.443z"/>
				<path style="fill:#3E859E;" d="M439.579,287.973c-1.381-2.721-4.873-3.53-7.534-3.398c1.801-0.576,6.482-2.598,8.441-2.879
					c0.507-0.073,0.487-0.614-0.029-0.576c-4.163,0.307-9.632,2.848-13.298,4.809c0.078-0.853-0.07-2.079,0.097-2.918
					c0.193-0.976-0.324-0.937-0.406-0.654c-0.348,1.211-0.462,2.849-0.624,4.089c-4,2.168-11.534,8.533-13.318,10.246
					c-0.051-1.345-0.222-2.494-0.091-4.135c0.047-0.589-0.249-1.346-0.472-0.52c-0.484,1.79-0.297,3.594-0.225,5.417
					c-0.562,0.552-5.178,5.569-6.267,6.976c-0.086-1.575-0.123-3.168-0.293-4.728c-0.076-0.695-0.505-0.702-0.434,0.019
					c0.177,1.789-0.532,3.846,0.058,5.578c-0.408,0.551-4.058,5.711-4.635,6.818c-0.174,0.334,0.743,0.574,1.004,0.085
					c0.699-1.316,1.837-2.949,2.665-4.173c3.761-1.114,8.732-2.479,12.289-0.403c0.453,0.265,0.363-0.336-0.062-0.582
					c-3.336-1.928-7.532-1.502-11.232-0.43c1.573-2.15,3.329-4.162,5.186-6.084c1.967-1.43,4.709-2.198,7.04-2.367
					c2.96-0.216,5.262,1.249,8.069,1.479c0.444,0.036,0.428-0.969-0.025-1.021c-1.818-0.207-3.352-1.216-5.144-1.534
					c-1.537-0.273-3.112-0.21-4.639,0.087c-0.829,0.161-1.709,0.366-2.566,0.649c1.542-1.459,3.127-2.871,4.729-4.25
					c1.506-1.297,3.043-2.51,4.623-3.624c2.595-0.875,9.652,0.65,12.206,1.399c0.562,0.165,0.664-0.19,0.182-0.339
					c-2.62-0.805-7.181-2.588-10.616-2.322c0.436-0.264,4.796-2.617,5.857-3.076c0.046,0.249,7.398-0.637,9.132,2.646
					C439.658,289.034,439.864,288.535,439.579,287.973z"/>
				<path style="fill:#3E859E;" d="M376.709,284.343c0.132-3.234,0.506-6.403,1.506-9.561c0.182-0.575-0.124-0.951-0.358-0.24
					c-0.829,2.516-1.748,5.076-1.979,7.79c-0.061-0.137-1.77-3.541-2.233-4.337c-0.773-1.328-1.388-2.2-2.419-3.551
					c0.119-0.064-0.931-7.418-1.605-10.574c-0.164-0.77-0.476-0.307-0.362,0.231c0.634,3.002,1.116,6.237,1.193,9.322
					c-0.944-1.221-8.126-10.881-8.386-14.55c-0.045-0.631-0.4-0.53-0.367-0.018c0.22,3.413,2.44,6.895,4.425,9.685
					c-2.469-1.619-5.663-3.116-7.967-5.008c-0.401-0.329-0.504,0.183-0.131,0.49c2.796,2.3,9.132,6.159,9.156,6.164
					c0.751,0.986,1.502,1.956,2.195,2.919c1.377,1.913,2.659,3.922,3.838,5.986c-2.812-1.887-5.977-2.867-8.687-4.919
					c-0.399-0.302-0.6,0.238-0.241,0.516c3.218,2.496,6.89,4.291,10.178,6.684c0.42,0.811,3.051,8.211,3.242,9.5
					c-1.75-2.271-4.282-4.304-6.783-5.592c-0.517-0.266-0.689,0.145-0.239,0.379c2.928,1.522,4.904,4.105,7.052,6.513
					c0.171,1.709,0.197,3.475,0.066,5.523c-0.032,0.502,0.814,0.57,0.94-0.303C379.438,292.586,378.253,288.414,376.709,284.343z"/>
				<path style="fill:#3E859E;" d="M372.499,320.636c-1.231-4.896-4.412-10.721-6.81-14.223c-3.175-4.639-8.303-7.331-10.962-12.341
					c-0.26-0.49-0.434-0.116-0.261,0.219c1.659,3.209,4.222,5.584,6.667,8.115c-2.399-1.579-4.904-2.425-7.349-3.923
					c-0.422-0.258-0.564,0.173-0.182,0.411c3.462,2.158,6.381,3.946,9.758,5.726c0,0,3.823,5.455,4.979,7.472
					c-2.676-1.936-6.613-3.252-9.53-4.793c-0.527-0.278-0.476,0.27-0.004,0.522c3.186,1.702,9.864,5.443,9.97,5.285
					c0.74,1.43,1.679,3.415,2.265,4.899c-2.126-0.759-4.727-1.541-6.803-2.516c-0.551-0.259-0.711,0.383-0.222,0.614
					c2.179,1.028,4.812,2.498,7.262,2.737c0.251,0.703,0.486,1.408,0.698,2.115C372.122,321.445,372.586,320.983,372.499,320.636z"
					/>
			</g>
			<g>
				<path style="fill:#AA786F;" d="M370.68,328.26h30.983l-1.928,26.48c-0.199,2.736-2.477,4.854-5.22,4.854h-16.348
					c-2.718,0-4.984-2.08-5.215-4.788L370.68,328.26z"/>
				<path style="fill:#E1B59D;" d="M401.903,332.001H370.44c-1.629,0-2.95-1.321-2.95-2.95l0,0c0-1.629,1.321-2.95,2.95-2.95h31.463
					c1.629,0,2.95,1.321,2.95,2.95l0,0C404.853,330.68,403.532,332.001,401.903,332.001z"/>
			</g>
		</g>
	</g>
	<g>
		<g>
			<path style="fill:#916B61;" d="M162.298,411.06l10.778,4.365c0,0,104.914-132.47,140.106-176.673
				c2.604-3.271,1.228-11.937-5.775-4.933C298.313,242.913,162.298,411.06,162.298,411.06z"/>
			<path style="fill:#9B776B;" d="M313.182,238.752c-35.189,44.203-140.11,176.673-140.11,176.673l-6.339-2.572l145.582-181.651
				C314.876,231.631,314.985,236.491,313.182,238.752z"/>
		</g>
		<path style="fill:#EFA700;" d="M295.81,250.365c1.767-5.376,81.985,7.638,81.985,7.638s-93.192,120.62-99.666,120.62
			c-6.474,0-39.278,2.604-55.214-13.333C206.978,349.354,280.059,298.288,295.81,250.365z"/>
		<g>
			<polygon style="fill:#FFFFFF;" points="247.872,201.446 228.864,214.394 238.368,237.8 253.542,230.782 			"/>
			<polygon style="fill:#3D3D3D;" points="228.864,214.394 251.301,214.394 255.783,247.17 235.614,244.772 			"/>
		</g>
		<path style="fill:#E5A67C;" d="M229.088,239.309c-0.425,13.457,2.906,48.126,8.034,53.253c5.128,5.128,26.629-1.476,26.629-1.476
			l2.211-17.941l-17.001,0.361c0,0-6.624-20.268-13.347-28.734c0,0,4.98-14.193,2.739-16.434
			C236.112,226.097,229.305,232.436,229.088,239.309z"/>
		<path style="fill:#FCE5E1;" d="M251.244,272.392c0,0-1.05,17.125,3.011,21.186c4.904,4.904,38.02-14.113,38.02-14.113
			l-2.08-11.016L251.244,272.392z"/>
		<g>
			<polygon style="fill:#B58A7A;" points="147.674,339.226 146.975,346.859 280.642,413.18 282.985,408.025 			"/>
			<polygon style="fill:#BC9488;" points="147.674,339.226 140.124,338.974 139.607,346.024 146.975,346.859 			"/>
			<polygon style="fill:#9B776B;" points="139.607,346.024 272.473,413.18 280.642,413.18 146.975,346.859 			"/>
		</g>
		<path style="fill:#264E85;" d="M222.915,293.577l14.442,15.438l19.422-2.988l13.446,27.39l-50.299,7.968l-18.924-39.312
			C201.002,302.074,215.444,293.577,222.915,293.577z"/>
		<path style="fill:#E5A67C;" d="M141.573,332.901c0,0-18.426,12.45-13.944,12.45c4.482,0,21.214-6.225,21.214-6.225l0.161-6.529
			c0,0,24.11-26.072,32.576-39.02l12.45,23.904l28.885-23.904c0,0-28.885-48.805-43.327-46.315
			C165.146,249.753,141.573,332.901,141.573,332.901z"/>
		<path style="fill:#3D3D3D;" d="M303.758,239.958c0,0,19.588-0.382,21.58,9.105c1.992,9.487-9.557,26.499-9.557,26.499
			c-2.887,2.887-15.938,5.492-15.938-3.805C299.843,262.462,303.758,239.958,303.758,239.958z"/>
		<g>
			<path style="fill:#916B61;" d="M232.686,430.311l10.778,4.365c0,0,104.914-132.47,140.106-176.674
				c2.604-3.27,1.228-11.937-5.775-4.933C368.701,262.163,232.686,430.311,232.686,430.311z"/>
			<path style="fill:#9B776B;" d="M383.57,258.003c-35.189,44.203-140.11,176.673-140.11,176.673l-6.339-2.572l145.582-181.651
				C385.264,250.881,385.373,255.742,383.57,258.003z"/>
		</g>
		<polygon style="fill:#1F4572;" points="219.926,313.996 241.804,324.369 256.779,317.482 256.779,328.268 231.014,334.743 		"/>
		<path style="fill:#264E85;" d="M256.779,317.482l-14.94,9.96l-21.912-13.446l-5.976,29.88c0,0,24.402,32.201,37.351,32.201
			c12.948,0,25.398-4.313,37.351-35.687L256.779,317.482z"/>
		<path style="fill:#F2DAD7;" d="M285.537,269.86c-3.436,0.318-6.58,4.769-6.58,4.769s-7.439-0.093-11.672,2.646
			c-2.624,1.698-4.215,4.84-4.482,7.19c-0.342,3.019,0,8.517,0,8.517l3.984,0.883L285.537,269.86z"/>
		<path style="fill:#FCE5E1;" d="M279.404,275.48c0,0-10.853-0.581-14.364,5.149c-2.341,3.822-1.289,10.458-1.289,10.458
			l-15.879,16.31c0,0,29.325,32.992,40.779,32.992c0,0,20.169-18.177,28.387-26.394c8.217-8.217,4.749-33.367,4.749-33.367
			s-26.163-14.003-33.135-11.981C281.68,270.669,279.404,275.48,279.404,275.48z"/>
		<path style="fill:#EFA700;" d="M224.828,344.371l-74.666-3.88c-4.141,0.895-1.948,6.871-1.948,6.871l76.097,4.059L224.828,344.371
			z"/>
		<path style="fill:#F9BA3A;" d="M148.213,347.362c0,0,44.54,28.228,65.613,34.238c23.409,6.677,67.698-3.207,67.698-3.207
			s-27.768-0.49-57.214-26.973L148.213,347.362z"/>
		<path style="fill:#F4B687;" d="M310.05,264.693l-1.192,14.645c0,0-6.546,3.529-11.111-1.036l2.497-15.424L310.05,264.693z"/>
		<path style="fill:#E5A67C;" d="M300.244,262.877l-1.346,8.316c0,0,8.501,1.981,10.699-0.934l0.453-5.567L300.244,262.877z"/>
		<path style="fill:#3D3D3D;" d="M318.954,270.333c3.049,1.425,2.561,5.656-0.062,8.279c-2.624,2.623-7.813,0.728-8.279-2.49
			C309.876,271.041,313.047,267.574,318.954,270.333z"/>
		<path style="fill:#3D3D3D;" d="M316.647,287.209c-1.169,1.358-6.915,3.384-7.204-2.18c-0.188-3.612,0.178-7.608,5.172-6.677
			C319.61,279.282,317.959,285.684,316.647,287.209z"/>
		<path style="fill:#3D3D3D;" d="M309.987,294.801c-1.403,0.557-6.484-0.178-4.525-4.444c1.272-2.769,3.107-5.609,6.471-2.962
			C315.297,290.042,311.562,294.176,309.987,294.801z"/>
		<path style="fill:#3D3D3D;" d="M305.728,299.985c-1.2,0.476-5.543-0.152-3.868-3.799c1.087-2.367,2.656-4.795,5.531-2.532
			C310.267,295.918,307.075,299.451,305.728,299.985z"/>
		<path style="fill:#3D3D3D;" d="M303.413,298.494c0,0-8.453-2.143-10.082,6.126C293.331,304.62,302.281,309.578,303.413,298.494z"
			/>
		<g>
			<path style="fill:#C5DDF9;" d="M268.683,289.759c0,0-0.259,24.507,1.542,26.308c2.166,2.166,6.716,2.13,8.1,0.747
				c3.922-3.922,4.66-27.055,4.66-27.055S275.441,292.083,268.683,289.759z"/>
			<path style="fill:#DBECFC;" d="M268.683,289.759c0,0,6.018-3.419,14.302,0C282.985,289.759,277.165,293.121,268.683,289.759z"/>
			<path style="fill:#F9C364;" d="M269.693,296.977c0,0,0.166,16.849,1.245,17.928c1.079,1.079,3.518,2.637,6.308,0.581
				c2.79-2.056,3.614-14.004,4.539-17.242C281.785,298.244,275.739,299.882,269.693,296.977z"/>
			<path style="fill:#FFD38D;" d="M269.693,296.977c0,0,5.592-1.367,12.092,1.267C281.785,298.244,274.672,300.549,269.693,296.977z
				"/>
			<g>
				<path style="fill:#FFFFFF;" d="M274.702,309.589c-0.025,0-0.051-0.002-0.077-0.006c-0.272-0.042-0.458-0.296-0.416-0.568
					l4.035-26.151c0.199-1.293,0.851-2.48,1.833-3.343l6.081-5.337c0.206-0.18,0.521-0.161,0.703,0.046
					c0.181,0.207,0.16,0.521-0.046,0.703l-6.081,5.336c-0.808,0.709-1.343,1.684-1.507,2.745l-4.035,26.151
					C275.155,309.413,274.943,309.589,274.702,309.589z"/>
			</g>
		</g>
		<path style="fill:#F4B687;" d="M219.926,313.996c0,0-21.414-18.426-30.378-9.462c-8.964,8.964-54.299,95.633-54.299,95.633
			s-21.999,11.337-19.905,13.431c3.237,3.237,23.904-4.482,23.904-4.482l0.358-6.311l59.534-64.243l14.809,5.315L219.926,313.996z"
			/>
		<path style="fill:#F4B687;" d="M312.369,315.32l-2.927,12.318c0,0-19.527-1.087-27.657-15.53c0,0-3.156-1.139-6.592-2.943
			c-3.294-1.729-5.846-5.076-6.332-4.245c-2.014,3.438,2.367,13.221,10.501,11.976c0,0,16.51,34.706,36.075,29.126
			c11.188-3.191,11.91-28.998,11.91-28.998L312.369,315.32z"/>
		<path style="fill:#F4B687;" d="M281.491,306.735c0,0,0.724,3.263,0.294,5.374l-2.672,0.306
			C279.113,312.415,280.323,307.903,281.491,306.735z"/>
		<path style="fill:#FCE5E1;" d="M321.787,280.629c0,0,14.824,20.585,7.702,42.984c0,0-17.12,1.667-19.516-3.18
			C307.79,316.017,312.458,289.958,321.787,280.629z"/>
		<g>
			<polygon style="fill:#B58A7A;" points="232.377,344.623 231.678,352.256 365.345,418.577 367.688,413.422 			"/>
			<polygon style="fill:#BC9488;" points="232.377,344.623 224.828,344.371 224.311,351.421 231.678,352.256 			"/>
			<polygon style="fill:#9B776B;" points="224.311,351.421 357.176,418.577 365.345,418.577 231.678,352.256 			"/>
		</g>
		<path style="fill:#F4B687;" d="M298.245,243.69c0,0-10.191,14.993-4.182,21.003c6.009,6.009,16.383,5.226,20.178-1.188
			c0,0,5.032,2.024,6.282-2.796c1.169-4.506-4.309-2.436-4.309-2.436s6.299-9.209,4.309-12.504
			C316.702,239.438,301.494,239.177,298.245,243.69z"/>
		<path style="fill:#FFFEEA;" d="M278.782,236.293c0.46-1.764,8.383-3.287,20.272-1.787c0,0,2.279-9.413,13.977-8.698
			c18.015,1.101,15.67,18.305,15.67,18.305s10.585,6.822,13.841,11.017c3.256,4.196-6.746,2.962-32.125-4.052
			C285.206,244.111,277.827,239.956,278.782,236.293z"/>
		<path style="fill:#C40C39;" d="M328.71,244.079l-0.01,0.03c-18.197,1.823-29.641-9.602-29.641-9.602s0.488-2.002,2.161-4.094
			c8.466,7.211,22.181,9.263,27.49,9.801C328.899,242.296,328.73,243.83,328.71,244.079z"/>
		<path style="fill:#F2DAD7;" d="M314.986,291.825c0,0-6.43,13.901-5.501,26.193C309.485,318.018,312.189,302.259,314.986,291.825z"
			/>
		<path style="fill:#F2F2F2;" d="M228.864,214.394h22.437c0,0-13.917-1.548-17.236-1.548c0,0,13.807-8.383,13.807-11.4
			L228.864,214.394z"/>
	</g>
	<g>
		<rect x="83.457" y="325.632" style="fill:#3D3D3D;" width="6.32" height="129.836"/>
		<rect x="160.566" y="325.632" style="fill:#3D3D3D;" width="6.32" height="129.836"/>
		<rect x="122.643" y="325.632" style="fill:#3D3D3D;" width="6.32" height="129.836"/>
		
			<rect x="246.583" y="162.506" transform="matrix(-1.836970e-16 1 -1 -1.836970e-16 579.0491 79.0491)" style="fill:#3D3D3D;" width="6.833" height="333.086"/>
		
			<rect x="246.583" y="285.509" transform="matrix(-1.836970e-16 1 -1 -1.836970e-16 702.0518 202.0518)" style="fill:#3D3D3D;" width="6.833" height="333.086"/>
		<rect x="196.592" y="325.632" style="fill:#3D3D3D;" width="6.32" height="129.836"/>
		<rect x="235.147" y="325.632" style="fill:#3D3D3D;" width="6.32" height="129.836"/>
		<rect x="270.541" y="325.632" style="fill:#3D3D3D;" width="6.32" height="129.836"/>
		<rect x="303.408" y="325.632" style="fill:#3D3D3D;" width="6.32" height="129.836"/>
		<rect x="340.066" y="325.632" style="fill:#3D3D3D;" width="6.32" height="129.836"/>
		<rect x="375.46" y="325.632" style="fill:#3D3D3D;" width="6.32" height="129.836"/>
		<rect x="410.223" y="325.632" style="fill:#3D3D3D;" width="6.32" height="129.836"/>
	</g>
</g>
</svg>
