<?xml version="1.0" encoding="utf-8"?>
<!-- Generator: Adobe Illustrator 27.5.0, SVG Export Plug-In . SVG Version: 6.00 Build 0)  -->
<svg version="1.1" xmlns="http://www.w3.org/2000/svg" xmlns:xlink="http://www.w3.org/1999/xlink" x="0px" y="0px"
	 viewBox="0 0 750 500" style="enable-background:new 0 0 750 500;" xml:space="preserve">
<g id="BACKGROUND">
	<rect style="fill:#C9E1F4;" width="750" height="500"/>
</g>
<g id="OBJECTS">
	<path style="fill:#FCFCFC;" d="M655.09,212.47l94.91,0.51V180.4c-4.49,1.32-8.88,3.14-12.99,5.14
		c-12.64,6.15-25.12,14.11-39.17,14.62c-8.23,0.29-16.42-2.04-24.63-1.44C665,199.32,656.01,204.29,655.09,212.47z"/>
	<path style="fill:#FCFCFC;" d="M212.519,68.464c3.865-2.076,7.353-5.274,11.25-7.241c20.793-10.494,45.299,16.447,65.314,3.549
		c3.827-2.466,7.26-6.324,11.45-7.282c9.878-2.26,17.358,11.927,26.965,15.726c3.898,1.542,8.046,1.304,12.112,1.422
		c8.844,0.256,17.659,2.274,26.06,5.966l-208.505-1.471C171.961,63.283,194.906,77.924,212.519,68.464z"/>
	<rect x="562.362" y="395.428" style="fill:#80B2D9;" width="28.347" height="104.572"/>
	<polygon style="fill:#80B2D9;" points="213.83,499.883 213.83,214.727 281.364,261.825 281.364,326.107 374.148,326.107 
		374.148,500 	"/>
	<polygon style="fill:#8CC2ED;" points="654.48,343.555 623.518,343.555 623.518,373.234 608.921,373.234 608.921,500 654.48,500 	
		"/>
	<polygon style="fill:#8CC2ED;" points="404.123,500 404.123,308.901 354.11,308.901 354.11,394.555 321.435,394.555 321.435,500 	
		"/>
	<polygon style="fill:#A1CFF4;" points="250.519,379.718 250.519,499.627 342.563,499.627 342.563,500 371.471,500 695.211,499.972 
		750.519,500 750.519,395.125 716.77,409.932 716.77,438.316 700.205,438.316 700.205,389.686 646.371,389.686 646.371,474.388 
		580.3,474.388 580.3,414.957 541.083,414.957 541.083,326.642 512.008,326.642 512.008,361.978 485.888,361.978 485.888,449.126 
		451.766,449.126 451.766,377.599 396.738,395.125 396.738,442.865 371.471,442.865 371.471,361.978 342.563,361.978 
		342.563,441.947 310.535,441.947 310.535,401.918 283.861,401.918 283.861,379.718 	"/>
	<path style="fill:#75332F;" d="M371.776,86.512c0,0-2.252-20.732-1.187-22.804c2.117-4.117,8.49-2.54,8.49-2.54
		s18.681-7.73,27.105-3.496c8.424,4.234,2.708,14.119,2.708,14.119s5.181-0.871,5.383,1.337c0.502,5.505-6.678,9.368-7.224,15.798
		L371.776,86.512z"/>
	<g>
		<path style="fill:#8C9C36;" d="M230.24,305.509c-0.885-1.042-1.479-2.32-1.58-3.858c-0.317-4.848,2.659-8.985,0.573-14.058
			c-1.14-2.771-4.089-4.478-6.191-6.353c-4.246-3.787-7.93-9.411-7.317-15.498c0.597-5.934,3.608-13.267,2.914-19.128
			c-0.362-3.052-2.133-5.615-3.853-7.998c-2.704-3.746-5.464-7.493-7.463-11.77c-1.999-4.278-3.204-9.193-2.556-13.978
			c0.48-3.545,1.934-6.807,2.999-10.184c3.619-11.477,2.568-24.731-2.8-35.291c4.158,0.771,7.21,3.908,9.4,7.991
			c2.19,4.083,3.297,8.775,4.376,13.394c0.988,4.228,1.982,8.491,2.212,12.858c0.325,6.162-0.871,12.461,0.41,18.46
			c1.737,8.138,7.744,14.389,9.711,22.459c2.312,9.484-1.266,20.183,2.214,29.197c1.387-4.585,2.656-9.659,4.043-14.244
			c0.762-2.519,1.532-5.088,1.584-7.751c0.092-4.732-2.066-9.092-4.081-13.236c-2.218-4.56-4.359-9.244-5.4-14.316
			c-1.041-5.072-0.887-10.636,1.319-15.202c1.282-2.654,3.213-4.903,4.171-7.728c1.389-4.096,0.506-8.746-0.999-12.789
			c-1.505-4.043-3.611-7.801-4.785-11.982c-2.73-9.731,0.373-21.209,7.443-27.533c-0.653,7.995-0.741,16.957,2.48,24.106
			c1.857,4.121,4.838,7.443,7.016,11.355c3.93,7.058,5.046,16.049,2.987,24.064c-1.176,4.579-3.343,8.929-3.46,13.697
			c-0.199,8.172,5.596,15.044,6.676,23.126c0.847,6.332-1.278,12.636-3.364,18.587c1.174-4.163,6.043-6.49,8.491-9.866
			c4.039-5.572,2.458-13.823,0.53-20.697c-1.927-6.874-3.875-14.885-0.307-20.857c1.616-2.705,4.134-4.503,6.336-6.61
			c2.203-2.107,4.248-4.89,4.292-8.157c0.018-1.357-0.316-2.693-0.348-4.049c-0.084-3.503,1.884-6.74,4.397-8.777
			c2.513-2.037,5.529-3.087,8.485-4.105c1.023,5.499,1.133,12.193-0.966,17.284c-2.684,6.511-9.733,9.824-11.894,16.581
			c-1.383,4.324-0.434,9.15,0.975,13.462c1.409,4.313,3.283,8.509,3.781,13.074c0.505,4.631-0.499,9.454-2.777,13.341
			c-2.045,3.489-5.001,6.138-7.521,9.201c-2.52,3.063-4.708,6.893-4.594,11.08c0.071,2.58,1.016,5.074,0.942,7.654
			c-0.248,8.63-10.967,12.642-12.22,21.159c-0.773,5.252-2.848,8.031-8.07,7.63C235.83,309.053,232.271,307.902,230.24,305.509z"/>
		<g>
			<path style="fill:#82321B;" d="M218.766,351.007h38.496c6.824-5.643,11.181-14.222,11.181-23.832
				c0-16.995-13.624-30.773-30.429-30.773c-16.806,0-30.429,13.777-30.429,30.773C207.585,336.785,211.943,345.364,218.766,351.007z
				"/>
			<polygon style="fill:#622812;" points="218.766,351.007 257.262,351.007 258.895,357.177 217.133,357.177 			"/>
		</g>
		<rect x="220.265" y="294.111" style="fill:#82321B;" width="35.502" height="8.076"/>
	</g>
	<g>
		<path style="fill:#8C9C36;" d="M450.912,305.509c-0.885-1.042-1.479-2.32-1.58-3.858c-0.317-4.848,2.659-8.985,0.573-14.058
			c-1.14-2.771-4.089-4.478-6.191-6.353c-4.246-3.787-7.93-9.411-7.317-15.498c0.597-5.934,3.608-13.267,2.914-19.128
			c-0.362-3.052-2.133-5.615-3.853-7.998c-2.704-3.746-5.464-7.493-7.463-11.77c-1.999-4.278-3.204-9.193-2.556-13.978
			c0.48-3.545,1.934-6.807,2.999-10.184c3.619-11.477,2.568-24.731-2.799-35.291c4.158,0.771,7.21,3.908,9.4,7.991
			c2.19,4.083,3.297,8.775,4.376,13.394c0.988,4.228,1.982,8.491,2.212,12.858c0.325,6.162-0.871,12.461,0.41,18.46
			c1.737,8.138,7.744,14.389,9.711,22.459c2.312,9.484-1.266,20.183,2.214,29.197c1.387-4.585,2.656-9.659,4.043-14.244
			c0.762-2.519,1.532-5.088,1.584-7.751c0.092-4.732-2.066-9.092-4.081-13.236c-2.218-4.56-4.359-9.244-5.4-14.316
			c-1.04-5.072-0.887-10.636,1.319-15.202c1.282-2.654,3.213-4.903,4.171-7.728c1.389-4.096,0.506-8.746-0.999-12.789
			c-1.505-4.043-3.612-7.801-4.785-11.982c-2.73-9.731,0.373-21.209,7.443-27.533c-0.653,7.995-0.741,16.957,2.48,24.106
			c1.857,4.121,4.838,7.443,7.016,11.355c3.93,7.058,5.046,16.049,2.987,24.064c-1.176,4.579-3.343,8.929-3.46,13.697
			c-0.199,8.172,5.596,15.044,6.676,23.126c0.847,6.332-1.278,12.636-3.364,18.587c1.174-4.163,6.043-6.49,8.491-9.866
			c4.039-5.572,2.458-13.823,0.53-20.697c-1.928-6.874-3.875-14.885-0.307-20.857c1.616-2.705,4.134-4.503,6.336-6.61
			c2.203-2.107,4.248-4.89,4.292-8.157c0.018-1.357-0.316-2.693-0.348-4.049c-0.084-3.503,1.884-6.74,4.397-8.777
			c2.513-2.037,5.529-3.087,8.485-4.105c1.023,5.499,1.133,12.193-0.966,17.284c-2.684,6.511-9.733,9.824-11.894,16.581
			c-1.383,4.324-0.434,9.15,0.976,13.462c1.409,4.313,3.283,8.509,3.781,13.074c0.505,4.631-0.499,9.454-2.777,13.341
			c-2.045,3.489-5.001,6.138-7.521,9.201c-2.52,3.063-4.708,6.893-4.594,11.08c0.071,2.58,1.016,5.074,0.942,7.654
			c-0.248,8.63-10.967,12.642-12.22,21.159c-0.773,5.252-2.848,8.031-8.07,7.63C456.501,309.053,452.943,307.902,450.912,305.509z"
			/>
		<g>
			<path style="fill:#82321B;" d="M439.438,351.007h38.496c6.824-5.643,11.181-14.222,11.181-23.832
				c0-16.995-13.624-30.773-30.429-30.773c-16.806,0-30.429,13.777-30.429,30.773C428.257,336.785,432.615,345.364,439.438,351.007z
				"/>
			<polygon style="fill:#622812;" points="439.438,351.007 477.934,351.007 479.567,357.177 437.805,357.177 			"/>
		</g>
		<rect x="440.937" y="294.111" style="fill:#82321B;" width="35.502" height="8.076"/>
	</g>
	<rect y="0.005" style="fill:#BE675D;" width="197.095" height="395.423"/>
	<g>
		<line style="fill:none;stroke:#B06056;stroke-miterlimit:10;" x1="0" y1="27.9" x2="197.095" y2="27.9"/>
		<line style="fill:none;stroke:#B06056;stroke-miterlimit:10;" x1="0" y1="58.429" x2="197.095" y2="58.429"/>
		<line style="fill:none;stroke:#B06056;stroke-miterlimit:10;" x1="0" y1="88.959" x2="197.095" y2="88.959"/>
		<line style="fill:none;stroke:#B06056;stroke-miterlimit:10;" x1="0" y1="119.488" x2="197.095" y2="119.488"/>
		<line style="fill:none;stroke:#B06056;stroke-miterlimit:10;" x1="0" y1="150.017" x2="197.095" y2="150.017"/>
		<line style="fill:none;stroke:#B06056;stroke-miterlimit:10;" x1="0" y1="180.546" x2="197.095" y2="180.546"/>
		<line style="fill:none;stroke:#B06056;stroke-miterlimit:10;" x1="0" y1="211.075" x2="197.095" y2="211.075"/>
		<line style="fill:none;stroke:#B06056;stroke-miterlimit:10;" x1="0" y1="241.604" x2="197.095" y2="241.604"/>
		<line style="fill:none;stroke:#B06056;stroke-miterlimit:10;" x1="0" y1="272.133" x2="197.095" y2="272.133"/>
		<line style="fill:none;stroke:#B06056;stroke-miterlimit:10;" x1="0" y1="302.662" x2="197.095" y2="302.662"/>
		<line style="fill:none;stroke:#B06056;stroke-miterlimit:10;" x1="0" y1="333.191" x2="197.095" y2="333.191"/>
		<line style="fill:none;stroke:#B06056;stroke-miterlimit:10;" x1="180.694" y1="27.9" x2="180.694" y2="58.429"/>
		<line style="fill:none;stroke:#B06056;stroke-miterlimit:10;" x1="180.694" y1="88.959" x2="180.694" y2="119.488"/>
		<line style="fill:none;stroke:#B06056;stroke-miterlimit:10;" x1="180.694" y1="150.017" x2="180.694" y2="180.546"/>
		<line style="fill:none;stroke:#B06056;stroke-miterlimit:10;" x1="180.694" y1="211.075" x2="180.694" y2="241.604"/>
		<line style="fill:none;stroke:#B06056;stroke-miterlimit:10;" x1="180.694" y1="272.133" x2="180.694" y2="302.662"/>
		<line style="fill:none;stroke:#B06056;stroke-miterlimit:10;" x1="180.694" y1="333.191" x2="180.694" y2="363.721"/>
	</g>
	<g>
		<rect y="-0.005" style="fill:#A5D0F2;" width="148.95" height="351.8"/>
		<line style="fill:none;stroke:#BDE2FF;stroke-miterlimit:10;" x1="87.274" y1="0.278" x2="0" y2="346.949"/>
		<line style="fill:none;stroke:#BDE2FF;stroke-miterlimit:10;" x1="149.595" y1="93.569" x2="85.807" y2="346.949"/>
		
			<rect y="24.039" transform="matrix(-1 -1.224647e-16 1.224647e-16 -1 148.9481 55.8006)" style="fill:#EBF9FF;" width="148.948" height="7.723"/>
		
			<rect x="-70.063" y="172.035" transform="matrix(-1.836970e-16 1 -1 -1.836970e-16 281.7299 70.063)" style="fill:#EBF9FF;" width="351.793" height="7.723"/>
		
			<rect y="346.949" transform="matrix(-1 -1.224647e-16 1.224647e-16 -1 148.9481 706.4688)" style="fill:#EBF9FF;" width="148.948" height="12.571"/>
		
			<rect x="-26.95" y="175.898" transform="matrix(-1.836970e-16 1 -1 -1.836970e-16 332.5697 26.9504)" style="fill:#EBF9FF;" width="359.52" height="7.723"/>
	</g>
	<g>
		<polygon style="fill:#727178;" points="139.76,360.265 126.671,360.262 0,219.857 0,205.357 		"/>
		<path style="fill:#727178;" d="M139.76,256.15L139.76,256.15c0,2.053-2.632,3.649-3.829,2.323L0,107.802v-7.24l139.364,154.469
			C139.621,255.317,139.76,255.708,139.76,256.15z"/>
		
			<line style="fill:none;stroke:#727178;stroke-width:3;stroke-miterlimit:10;" x1="112.872" y1="231.818" x2="112.872" y2="335.224"/>
		
			<line style="fill:none;stroke:#727178;stroke-width:3;stroke-miterlimit:10;" x1="68.926" y1="180.186" x2="68.926" y2="285.352"/>
		<line style="fill:none;stroke:#727178;stroke-width:3;stroke-miterlimit:10;" x1="24.98" y1="132.066" x2="24.98" y2="235.479"/>
	</g>
	<g>
		<path style="fill:#FF8D6B;" d="M446.276,141.515c0,0,5.096-4.519,6.94-5.362c1.843-0.842,6.87-0.545,8.567,0.239
			c1.696,0.784-1.937,4.12-1.937,4.12s1.664,2.68,1.433,3.283c-0.231,0.603-0.727,1.705-0.727,1.705s1.109,1.869,0,2.494
			c-1.155,0.651-6.349,1.019-8.735,0.26L446.276,141.515z"/>
		<path style="fill:#FF9F82;" d="M457.99,139.621c0,0-3.253,0.715-3.687,1.685c-0.434,0.971,2.755,1.888,2.755,1.888
			s-2.547,0.417-2.796,2.002c-0.249,1.585,4.989,1.403,6.113,1.001c1.124-0.402,1.518-2.628,0.723-3.15c0,0,0.18-2.353-0.888-2.899
			C459.142,139.604,457.99,139.621,457.99,139.621z"/>
		<path style="fill:#FF8D6B;" d="M408.35,165.677l37.926-24.162l5.541,6.739c0,0-37.395,41.584-51.07,41.584
			c-13.675,0-12.571-20.157-12.571-20.157L408.35,165.677z"/>
		<path style="fill:#FFFFFF;" d="M404.548,118.821c0,0,1.226,2.933,3.152,9.656c1.925,6.723,0.65,37.2,0.65,37.2l-20.174,4.005
			C388.175,169.682,389.712,136.057,404.548,118.821z"/>
		
			<line style="fill:none;stroke:#0D0000;stroke-width:0.75;stroke-miterlimit:10;" x1="408.549" y1="159.78" x2="388.911" y2="161.941"/>
		<path style="fill:#E35E4B;" d="M376.135,100.957c0,0-23.448,3.267-28.81,7.981c-4.021,3.535-19.919,22.217-32.403,81.732
			l69.621,0.053c0,0,18.53-62.68,20.1-69.403c1.639-7.017-15.487-20.774-15.487-20.774L376.135,100.957z"/>
		<polygon style="fill:#D65947;" points="384.542,190.723 386.219,185.043 316.135,185.043 314.921,190.67 		"/>
		<polygon style="fill:#FFFFFF;" points="393.837,111.453 401.061,112.427 399.063,110.005 393.837,109.149 		"/>
		<polygon style="fill:#FA6753;" points="393.837,157.665 354.46,151.721 354.46,154.693 393.371,160.703 		"/>
		<polygon style="fill:#FA6753;" points="397.643,146.059 361.264,140.636 359.837,148.08 395.506,153.399 		"/>
		<path style="fill:none;stroke:#0D0000;stroke-width:0.75;stroke-miterlimit:10;" d="M348.04,127.118
			c0,0-15.403,27.505-23.211,63.552"/>
		<polygon style="fill:#FFFFFF;" points="359.22,109.769 376.881,106.392 376.881,109.769 360.468,113.541 		"/>
		<path style="fill:#FFFFFF;" d="M370.803,109.769c0,0,3.086,16.9,12.496,17.334c9.41,0.434,12.256-8.965,12.207-11.929
			c-0.049-2.963-1.669-7.109-1.669-7.109L370.803,109.769z"/>
		<path style="fill:#FF9F82;" d="M348.187,176.621l0.932-24.921l13.446-3.055C362.565,148.645,362.22,173.585,348.187,176.621z"/>
		<path style="fill:#FFFFFF;" d="M346.083,152.983c0,0-0.38-28.843,1.653-33.398c2.034-4.554,6.837-11.06,11.484-10.626
			c4.646,0.434,9.663,9.781,9.91,14.237c0.247,4.456,0,26.318,0,26.318L346.083,152.983z"/>
		
			<line style="fill:none;stroke:#0D0000;stroke-width:0.75;stroke-miterlimit:10;" x1="346.055" y1="147.018" x2="369.239" y2="144.292"/>
		<path style="fill:#FF8D6B;" d="M376.143,90.638l-1.559,23.466c-0.125,4.775,3.559,8.789,8.327,9.075l0,0
			c4.884,0.292,9.08-3.43,9.373-8.314l2.093-23.135L376.143,90.638z"/>
		<path style="fill:#070019;" d="M394.377,91.73l-2.164,23.824c0,0-6.373,0.635-10.544-2.657c-4.573-3.61-5.525-22.258-5.525-22.258
			L394.377,91.73z"/>
		<path style="fill:#F08565;" d="M401.17,84.935c0,0,6.579-1.937,7.116,1.485c0.537,3.423-2.305,6.643-7.539,5.588L401.17,84.935z"
			/>
		<path style="fill:#FF8D6B;" d="M377.706,71.565c2.153-7.641,14.05-5.798,14.05-5.798s12.032-0.41,13.258,7.433
			c1.226,7.843-1.102,20.671-1.411,23.478c-0.309,2.807-4.203,13.682-14.479,13.067c-10.276-0.615-12.931-10.845-12.903-13.668
			C376.248,93.252,375.554,79.206,377.706,71.565z"/>
		<path style="fill:#75332F;" d="M381.709,83.562c-0.02-0.735,0.967-1.682,1.743-1.728c0.777-0.046,6.036,0.569,5.934,1.433
			C389.285,84.132,381.743,84.776,381.709,83.562z"/>
		<path style="fill:#75332F;" d="M403.372,84.305c0.07-0.732-0.849-1.745-1.621-1.843c-0.772-0.099-6.061,0.154-6.018,1.023
			C395.776,84.354,403.256,85.514,403.372,84.305z"/>
		<path style="fill:none;stroke:#0D0000;stroke-width:0.75;stroke-miterlimit:10;" d="M392.986,88.474c0,0-0.52,4.903,2.52,8.562
			c0,0-0.993,4.15-3.808,3.921"/>
		<g>
			<g>
				<g>
					<g>
						<g>
							<path style="fill:#0D0000;" d="M388.169,88.27c-0.067,1.162-0.634,2.074-1.268,2.038c-0.633-0.036-1.093-1.007-1.027-2.169
								c0.066-1.162,0.634-2.074,1.267-2.038C387.776,86.137,388.236,87.108,388.169,88.27z"/>
						</g>
					</g>
				</g>
			</g>
		</g>
		<g>
			<g>
				<g>
					<g>
						<g>
							<path style="fill:#0D0000;" d="M396.496,88.768c-0.073,1.161,0.382,2.135,1.016,2.175c0.633,0.039,1.205-0.87,1.278-2.031
								c0.073-1.161-0.382-2.135-1.015-2.174C397.141,86.698,396.569,87.607,396.496,88.768z"/>
						</g>
					</g>
				</g>
			</g>
		</g>
		<path style="fill:#FF8D6B;" d="M376.198,84.386c0,0-5.943-2.732-6.884,0.602s1.765,6.799,7.088,6.376L376.198,84.386z"/>
		<path style="fill:#75332F;" d="M407.818,66.288c0,0-1.625,8.243-6.997,11.571c-5.372,3.328-14.449,3.091-15.97,2.473
			c-1.521-0.618,2.494-5.908,2.494-5.908s-8.102,4.027-11.166,1.25C373.114,72.896,379.019,55.901,407.818,66.288z"/>
		<path style="fill:#75332F;" d="M376.198,84.386c0,0,2.704-1.452,3.933-3.114c1.229-1.663-1.703-10.193-3.996-10.193
			C373.842,71.079,370.819,78.753,376.198,84.386z"/>
		<path style="fill:none;stroke:#0D0000;stroke-width:0.75;stroke-miterlimit:10;" d="M370.803,86.65c0,0,0.967-1.315,1.798-1.023
			c0.831,0.292,2.333,2.159,2.822,3.44"/>
		
			<line style="fill:none;stroke:#0D0000;stroke-width:0.75;stroke-miterlimit:10;" x1="383.158" y1="199.975" x2="313.216" y2="199.975"/>
		<g>
			<path style="fill:#441B15;" d="M318.253,336.839c0,0-0.153,6.987,4.345,7.539c4.498,0.552,15.804,0,19.498,0
				s1.843,8.458,1.843,8.458h-50.207c0,0,0.454-5.7,1.79-9.01c1.336-3.31,7.542-6.987,7.542-6.987H318.253z"/>
			<path style="fill:#FF8D6B;" d="M303.893,324.556l-0.828,12.283c0,0-1.302,5.463,2.998,5.831
				c4.301,0.368,11.634-5.831,11.634-5.831l1.186-12.152L303.893,324.556z"/>
			<path style="fill:#FFFFFF;" d="M343.94,352.836h-27.354c0,0-14.611-4.94-17.847-4.956c-3.236-0.016-4.606,1.657-4.606,1.657
				l-1.148,5.421c0,0,44.027,0,46.907,0C342.771,354.959,343.94,352.836,343.94,352.836z"/>
			<path style="fill:#441B15;" d="M275.949,324.394c0,0-6.515,5.162-4.992,8.793c1.523,3.631,7.138,11.294,8.807,13.935
				s-6.97,7.698-6.97,7.698l-22.676-35.881c0,0,5.464-3.975,9.12-5.517c3.657-1.542,9.852,0.119,9.852,0.119L275.949,324.394z"/>
			<path style="fill:#FF8D6B;" d="M280.794,304.865l-11.705,8.674c0,0-5.628,3.19-4.025,6.541
				c1.603,3.351,10.634,3.916,10.634,3.916l11.746-8.32L280.794,304.865z"/>
			<path style="fill:#FFFFFF;" d="M272.793,354.819l-12.355-19.549c0,0-2.041-14.168-3.489-16.493
				c-1.447-2.324-3.609-2.042-3.609-2.042l-5.52,3.269c0,0,19.885,31.465,21.186,33.523
				C270.307,355.585,272.793,354.819,272.793,354.819z"/>
			<path style="fill:#5A5B71;" d="M384.542,190.723c0,0-2.682,69.511-1.931,78.254c0.751,8.743-96.421,49.737-96.421,49.737
				l-10.034-17.097l76.46-38.469l-5.903-72.478L384.542,190.723z"/>
			<polygon style="fill:#4D4E61;" points="339.183,269.907 333.28,297.779 296.173,314.431 300.031,289.605 			"/>
			<polygon style="fill:#5A5B71;" points="314.921,190.67 298.265,332.39 320.669,332.39 353.581,190.67 			"/>
			<path style="fill:none;stroke:#0D0000;stroke-width:0.75;stroke-miterlimit:10;" d="M357.607,210.173
				c0,0-9.604,4.919-17.272,4.532"/>
			
				<line style="fill:none;stroke:#0D0000;stroke-width:0.75;stroke-miterlimit:10;" x1="352.617" y1="263.148" x2="358.092" y2="261.53"/>
			
				<line style="fill:none;stroke:#0D0000;stroke-width:0.75;stroke-miterlimit:10;" x1="322.488" y1="324.556" x2="299.35" y2="324.556"/>
			
				<line style="fill:none;stroke:#0D0000;stroke-width:0.75;stroke-miterlimit:10;" x1="286.41" y1="296.458" x2="294.632" y2="315.098"/>
			<path style="fill:none;stroke:#0D0000;stroke-width:0.75;stroke-miterlimit:10;" d="M328.011,194.672
				c0,0-3.845,16.243-9.837,17.778l1.963-17.778"/>
			<path style="fill:none;stroke:#0D0000;stroke-width:0.75;stroke-miterlimit:10;" d="M381.505,194.672l-1.741,17.778
				c0,0-6.859-4.479-4.042-17.778"/>
		</g>
		<path style="fill:#FF9F82;" d="M374.841,100.97c1.501,0.25,0,6.289,0,6.289s9.571,0.868,9.774,1.843
			c0.202,0.976-1.316,6.072-1.316,6.072s-12.904-2.803-13.988-3.57C368.227,110.837,372.239,100.536,374.841,100.97z"/>
		<path style="fill:#FF9F82;" d="M383.299,115.175c0,0-11.827,62.93-15.249,68.135c-3.422,5.205-5.632,6.962-11.679,6.529
			c-6.047-0.434-9.052-5.844-8.185-13.217c0.867-7.374,27.956-63.08,27.956-63.08L383.299,115.175z"/>
		
			<line style="fill:none;stroke:#0D0000;stroke-width:0.75;stroke-miterlimit:10;" x1="358.453" y1="151.12" x2="352.687" y2="164.209"/>
		<g>
			<path style="fill:#F5F5F5;" d="M461.135,145.406c1.344,0.222,2.427,0.379,3.286,0.493c2.213,0.295,2.965,0.289,2.965,0.289
				l-0.977-2.448c0,0-1.119-0.06-2.375-0.256c-1.287-0.198-2.715-0.538-3.241-1.101c-1.037-1.106-2.433-4.498-1.687-5.283
				c0.222-0.235,2.291,0.117,3.981,0.448c1.203,0.238,2.213,0.466,2.213,0.466v-2.087c0,0-1.125-0.265-2.553-0.499
				c-2.045-0.331-4.715-0.598-5.599,0.066C456.224,136.19,456.333,144.618,461.135,145.406z"/>
			<path style="fill:#FFFFFF;" d="M477.297,132.341h13.824l-1.969,12.129c-0.477,2.938-2.639,5.344-5.528,6.059
				c-1.66,0.411-3.761,0.72-6.328,0.72c-2.566,0-4.667-0.309-6.328-0.72c-2.889-0.716-5.051-3.122-5.528-6.059l-1.969-12.129
				H477.297z"/>
			<ellipse style="fill:#D4D4D4;" cx="477.297" cy="132.341" rx="13.825" ry="3.586"/>
			<path style="fill:#C7C7C7;" d="M465.603,132.341c0,0.334,0.307,0.652,0.863,0.941c1.744,0.914,5.936,1.558,10.831,1.558
				c4.895,0,9.087-0.643,10.831-1.558c0.556-0.289,0.863-0.607,0.863-0.941c0-1.38-5.235-2.499-11.694-2.499
				C470.838,129.842,465.603,130.961,465.603,132.341z"/>
			<path style="fill:#441B15;" d="M466.466,133.282c1.744,0.914,5.936,1.558,10.831,1.558c4.895,0,9.087-0.643,10.831-1.558
				c-1.744-0.914-5.936-1.557-10.831-1.557C472.401,131.725,468.21,132.368,466.466,133.282z"/>
			<path style="opacity:0.05;fill:#FFFFFF;" d="M477.682,132.374c0.227-1.824-0.211-3.774-1.152-5.135
				c-0.421-0.608-0.932-1.099-1.335-1.728c-0.866-1.35-1.152-3.199-1.202-4.973c-0.091,1.289-0.28,2.576-0.356,3.867
				c-0.025,0.426-0.049,0.858,0.008,1.278c0.116,0.856,0.556,1.574,1.046,2.15c0.49,0.577,1.045,1.055,1.506,1.673
				C476.816,130.341,477.509,131.225,477.682,132.374z"/>
			<path style="opacity:0.05;fill:#FFFFFF;" d="M474.113,133.637c0.16-1.03-0.149-2.13-0.815-2.898
				c-0.298-0.343-0.659-0.62-0.944-0.975c-0.613-0.762-0.815-1.806-0.85-2.807c-0.065,0.728-0.198,1.454-0.252,2.183
				c-0.018,0.24-0.035,0.484,0.006,0.721c0.082,0.483,0.393,0.888,0.74,1.214c0.347,0.325,0.739,0.595,1.065,0.944
				C473.5,132.489,473.991,132.989,474.113,133.637z"/>
			<path style="opacity:0.05;fill:#FFFFFF;" d="M483.309,133.637c0.205-1.405-0.191-2.907-1.043-3.956
				c-0.381-0.468-0.843-0.847-1.208-1.331c-0.784-1.04-1.043-2.465-1.088-3.831c-0.083,0.993-0.253,1.984-0.322,2.979
				c-0.023,0.328-0.045,0.661,0.007,0.985c0.105,0.66,0.503,1.212,0.947,1.657c0.444,0.444,0.946,0.813,1.363,1.289
				C482.525,132.071,483.153,132.752,483.309,133.637z"/>
		</g>
		<path style="fill:#FF9F82;" d="M460.97,137.211c0,0-4.876-0.416-5.483,1.293c-0.607,1.709,4.306,1.66,6.002,1.443
			C463.186,139.73,463.309,137.837,460.97,137.211z"/>
		
			<line style="fill:none;stroke:#0D0000;stroke-width:0.75;stroke-miterlimit:10;" x1="408.35" y1="165.677" x2="404.095" y2="168.814"/>
		<path style="fill:none;stroke:#0D0000;stroke-width:0.75;stroke-miterlimit:10;" d="M387.081,100.957
			c1.471,1.899,3.683,2.856,6.352,2.333"/>
		<path style="fill:#F08565;" d="M390.676,106.232c-0.426-0.236-4.044-0.541-3.915-0.172c0.129,0.369,1.322,0.958,2.189,1.07
			C389.816,107.242,390.927,106.371,390.676,106.232z"/>
		<path style="fill:none;stroke:#0D0000;stroke-width:0.75;stroke-miterlimit:10;" d="M451.817,148.254c0,0-0.987-0.332-1.782-0.621
			"/>
	</g>
	<rect y="363.061" style="fill:#E4F7FF;" width="513.935" height="21.51"/>
	<rect y="384.572" style="fill:#BE675D;" width="513.935" height="115.414"/>
	<g>
		<line style="fill:none;stroke:#B06056;stroke-miterlimit:10;" x1="0" y1="394.115" x2="513.935" y2="394.115"/>
		<line style="fill:none;stroke:#B06056;stroke-miterlimit:10;" x1="0" y1="426.224" x2="513.935" y2="426.224"/>
		<line style="fill:none;stroke:#B06056;stroke-miterlimit:10;" x1="0" y1="458.334" x2="513.935" y2="458.334"/>
		<line style="fill:none;stroke:#B06056;stroke-miterlimit:10;" x1="0" y1="490.443" x2="513.935" y2="490.443"/>
		<line style="fill:none;stroke:#B06056;stroke-miterlimit:10;" x1="497.561" y1="394.115" x2="497.561" y2="426.224"/>
		<line style="fill:none;stroke:#B06056;stroke-miterlimit:10;" x1="497.561" y1="458.334" x2="497.561" y2="490.443"/>
		<line style="fill:none;stroke:#B06056;stroke-miterlimit:10;" x1="322.488" y1="394.115" x2="322.488" y2="426.224"/>
		<line style="fill:none;stroke:#B06056;stroke-miterlimit:10;" x1="322.488" y1="458.334" x2="322.488" y2="490.443"/>
		<line style="fill:none;stroke:#B06056;stroke-miterlimit:10;" x1="147.416" y1="394.115" x2="147.416" y2="426.224"/>
		<line style="fill:none;stroke:#B06056;stroke-miterlimit:10;" x1="147.416" y1="458.334" x2="147.416" y2="490.443"/>
		<line style="fill:none;stroke:#B06056;stroke-miterlimit:10;" x1="413.087" y1="426.224" x2="413.087" y2="458.334"/>
		<line style="fill:none;stroke:#B06056;stroke-miterlimit:10;" x1="413.087" y1="490.443" x2="413.087" y2="499.986"/>
		<line style="fill:none;stroke:#B06056;stroke-miterlimit:10;" x1="238.014" y1="426.224" x2="238.014" y2="458.334"/>
		<line style="fill:none;stroke:#B06056;stroke-miterlimit:10;" x1="238.014" y1="490.443" x2="238.014" y2="499.986"/>
		<line style="fill:none;stroke:#B06056;stroke-miterlimit:10;" x1="62.942" y1="426.224" x2="62.942" y2="458.334"/>
		<line style="fill:none;stroke:#B06056;stroke-miterlimit:10;" x1="62.942" y1="490.443" x2="62.942" y2="499.986"/>
		<line style="fill:none;stroke:#B06056;stroke-miterlimit:10;" x1="413.087" y1="384.572" x2="413.087" y2="394.115"/>
		<line style="fill:none;stroke:#B06056;stroke-miterlimit:10;" x1="238.014" y1="384.572" x2="238.014" y2="394.115"/>
		<line style="fill:none;stroke:#B06056;stroke-miterlimit:10;" x1="62.942" y1="384.572" x2="62.942" y2="394.115"/>
	</g>
	<g>
		<g>
			<rect y="189.839" style="fill:#A75432;" width="526.95" height="8.276"/>
			<rect y="198.114" style="fill:#2F303B;" width="512.051" height="6.16"/>
			<rect y="354.959" style="fill:#2F303B;" width="512.051" height="6.16"/>
			<rect y="237.579" style="fill:#2F303B;" width="512.051" height="6.16"/>
			
				<rect x="-13.585" y="293.189" transform="matrix(-1.836970e-16 1 -1 -1.836970e-16 341.3734 251.1638)" style="fill:#2F303B;" width="117.38" height="6.16"/>
			
				<rect x="28.584" y="293.189" transform="matrix(-1.836970e-16 1 -1 -1.836970e-16 383.5432 208.9942)" style="fill:#2F303B;" width="117.38" height="6.16"/>
			
				<rect x="70.754" y="293.189" transform="matrix(-1.836970e-16 1 -1 -1.836970e-16 425.7129 166.8244)" style="fill:#2F303B;" width="117.38" height="6.16"/>
			
				<rect x="112.924" y="293.189" transform="matrix(-1.836970e-16 1 -1 -1.836970e-16 467.8825 124.6548)" style="fill:#2F303B;" width="117.38" height="6.16"/>
			
				<rect x="155.093" y="293.189" transform="matrix(-1.836970e-16 1 -1 -1.836970e-16 510.0522 82.4852)" style="fill:#2F303B;" width="117.38" height="6.16"/>
			
				<rect x="180.611" y="276.536" transform="matrix(-1.836970e-16 1 -1 -1.836970e-16 535.5695 23.6631)" style="fill:#2F303B;" width="150.685" height="6.16"/>
			
				<rect x="239.433" y="293.189" transform="matrix(-1.836970e-16 1 -1 -1.836970e-16 594.3915 -1.8542)" style="fill:#2F303B;" width="117.38" height="6.16"/>
			
				<rect x="281.603" y="293.189" transform="matrix(-1.836970e-16 1 -1 -1.836970e-16 636.5612 -44.0239)" style="fill:#2F303B;" width="117.38" height="6.16"/>
			
				<rect x="323.772" y="293.189" transform="matrix(-1.836970e-16 1 -1 -1.836970e-16 678.731 -86.1936)" style="fill:#2F303B;" width="117.38" height="6.16"/>
			
				<rect x="365.942" y="293.189" transform="matrix(-1.836970e-16 1 -1 -1.836970e-16 720.9006 -128.3633)" style="fill:#2F303B;" width="117.38" height="6.16"/>
			
				<rect x="408.112" y="293.189" transform="matrix(-1.836970e-16 1 -1 -1.836970e-16 763.0703 -170.5329)" style="fill:#2F303B;" width="117.38" height="6.16"/>
			
				<rect x="450.281" y="293.189" transform="matrix(-1.836970e-16 1 -1 -1.836970e-16 805.2399 -212.7026)" style="fill:#2F303B;" width="117.38" height="6.16"/>
			
				<rect x="430.549" y="273.457" transform="matrix(-1.836970e-16 1 -1 -1.836970e-16 785.5077 -232.4349)" style="fill:#2F303B;" width="156.845" height="6.16"/>
		</g>
		<rect y="360.262" style="fill:#F5F5F5;" width="526.95" height="24.495"/>
	</g>
</g>
</svg>
